<svg width="175" height="175" viewBox="0 0 175 175" fill="none" xmlns="http://www.w3.org/2000/svg">
<mask id="mask0_1303_279429" style="mask-type:luminance" maskUnits="userSpaceOnUse" x="0" y="0" width="175" height="175">
<path d="M175 0H0V175H175V0Z" fill="white"/>
</mask>
<g mask="url(#mask0_1303_279429)">
<path d="M87.5004 156.917C126.16 156.917 157.5 125.577 157.5 86.9167C157.5 48.2569 126.16 16.9167 87.5004 16.9167C48.8406 16.9167 17.5004 48.2569 17.5004 86.9167C17.5004 125.577 48.8406 156.917 87.5004 156.917Z" fill="url(#paint0_linear_1303_279429)"/>
<path d="M61.2498 37.0739H115.23C120.385 37.0739 124.563 41.2523 124.563 46.4072V118.174C124.563 123.329 120.385 127.507 115.23 127.507H61.2498C56.0949 127.507 51.9165 123.329 51.9165 118.174V46.4072C51.9165 41.2523 56.0949 37.0739 61.2498 37.0739Z" fill="url(#paint1_linear_1303_279429)"/>
<path d="M61.1913 48.7393H84.6413C86.2198 48.7393 87.4996 50.0192 87.4996 51.5977C87.4996 53.1762 86.2198 54.456 84.6413 54.456H61.1913C59.6128 54.456 58.333 53.1762 58.333 51.5977C58.333 50.0192 59.6128 48.7393 61.1913 48.7393Z" fill="black"/>
<path d="M61.1913 64.9592H113.808C115.386 64.9592 116.666 66.239 116.666 67.8175C116.666 69.396 115.386 70.6758 113.808 70.6758H61.1913C59.6128 70.6758 58.333 69.396 58.333 67.8175C58.333 66.239 59.6128 64.9592 61.1913 64.9592Z" fill="#D5D5D5"/>
<path d="M61.1913 81.1745H113.808C115.386 81.1745 116.666 82.4544 116.666 84.0329C116.666 85.6114 115.386 86.8912 113.808 86.8912H61.1913C59.6128 86.8912 58.333 85.6114 58.333 84.0329C58.333 82.4544 59.6128 81.1745 61.1913 81.1745Z" fill="#D5D5D5"/>
<path d="M61.1913 97.3899H113.808C115.386 97.3899 116.666 98.6698 116.666 100.248C116.666 101.827 115.386 103.107 113.808 103.107H61.1913C59.6128 103.107 58.333 101.827 58.333 100.248C58.333 98.6698 59.6128 97.3899 61.1913 97.3899Z" fill="#D5D5D5"/>
<path d="M61.1913 113.61H113.808C115.386 113.61 116.666 114.89 116.666 116.468C116.666 118.047 115.386 119.326 113.808 119.326H61.1913C59.6128 119.326 58.333 118.047 58.333 116.468C58.333 114.89 59.6128 113.61 61.1913 113.61Z" fill="#D5D5D5"/>
<path d="M168.088 27.0818H133.041C131.408 27.0818 130.084 28.4748 130.084 30.1939V47.53C130.084 49.2485 131.408 50.6421 133.041 50.6421H168.088C169.721 50.6421 171.045 49.2485 171.045 47.53V30.1939C171.045 28.4748 169.721 27.0818 168.088 27.0818Z" fill="white"/>
<path d="M138.833 42.5824C140.766 42.5824 142.333 41.0155 142.333 39.0824C142.333 37.1492 140.766 35.5824 138.833 35.5824C136.9 35.5824 135.333 37.1492 135.333 39.0824C135.333 41.0155 136.9 42.5824 138.833 42.5824Z" fill="#CCC6D9"/>
<path d="M150.499 35.5824H162.166C164.099 35.5824 165.666 37.1492 165.666 39.0824C165.666 41.0155 164.099 42.5824 162.166 42.5824H150.499C148.566 42.5824 146.999 41.0155 146.999 39.0824C146.999 37.1492 148.566 35.5824 150.499 35.5824Z" fill="#D5D5D5"/>
<path fill-rule="evenodd" clip-rule="evenodd" d="M107.98 131.577C115.493 131.577 122.476 129.304 128.278 125.409L152.019 148.073L160.629 138.083L137.72 116.214C141.951 110.259 144.439 102.98 144.439 95.1187C144.439 74.9838 128.115 58.6603 107.98 58.6603C87.8449 58.6603 71.5221 74.9838 71.5221 95.1187C71.5221 115.254 87.8449 131.577 107.98 131.577ZM139.077 95.1187C139.077 112.166 125.258 125.985 108.211 125.985C91.1641 125.985 77.3449 112.166 77.3449 95.1187C77.3449 78.0719 91.1641 64.2528 108.211 64.2528C125.258 64.2528 139.077 78.0719 139.077 95.1187Z" fill="#CCC6D9"/>
<path d="M108.209 126.583C125.767 126.583 140 112.48 140 95.0831C140 77.6864 125.767 63.5831 108.209 63.5831C90.6504 63.5831 76.4171 77.6864 76.4171 95.0831C76.4171 112.48 90.6504 126.583 108.209 126.583Z" fill="white" fill-opacity="0.3"/>
<path d="M113.705 95.083L121.399 87.4191C122.12 86.6608 122.515 85.6534 122.5 84.6104C122.485 83.5674 122.062 82.5716 121.32 81.8337C120.578 81.0964 119.576 80.6752 118.526 80.6606C117.477 80.646 116.463 81.038 115.7 81.7544L107.989 89.4182L100.296 81.7544C99.9253 81.3653 99.4803 81.0538 98.9868 80.838C98.4933 80.6227 97.9613 80.5078 97.4223 80.5002C96.8833 80.4926 96.3483 80.5924 95.849 80.7936C95.3497 80.9955 94.8958 81.2941 94.5143 81.6733C94.1334 82.0519 93.8324 82.5028 93.63 82.9992C93.427 83.4956 93.3267 84.0276 93.3343 84.5637C93.3418 85.0992 93.4573 85.6277 93.6743 86.1183C93.8908 86.6089 94.2046 87.051 94.5966 87.4191L102.303 95.083L94.5966 102.747C94.2046 103.115 93.8908 103.557 93.6743 104.048C93.4573 104.538 93.3418 105.067 93.3343 105.602C93.3267 106.138 93.427 106.67 93.63 107.167C93.8324 107.663 94.1334 108.114 94.5143 108.493C94.8958 108.871 95.3497 109.17 95.849 109.372C96.3483 109.574 96.8833 109.673 97.4223 109.666C97.9613 109.658 98.4933 109.543 98.9868 109.328C99.4803 109.112 99.9253 108.801 100.296 108.412L108.006 100.748L115.717 108.412C116.487 109.085 117.487 109.442 118.513 109.409C119.538 109.376 120.512 108.956 121.237 108.234C121.961 107.511 122.381 106.541 122.412 105.522C122.442 104.503 122.08 103.51 121.399 102.747L113.705 95.083Z" fill="black"/>
<path d="M152.017 148.076L160.628 138.086L161.925 139.324C163.183 140.525 163.936 142.203 164.019 143.989C164.102 145.775 163.507 147.522 162.366 148.846C161.224 150.17 159.63 150.963 157.933 151.05C156.236 151.137 154.576 150.511 153.318 149.31L152.021 148.072L152.017 148.076Z" fill="#E1DCEB"/>
<path fill-rule="evenodd" clip-rule="evenodd" d="M32.8489 53.1838C32.8384 52.352 32.734 51.5126 32.5252 50.6679C31.7931 47.7034 28.5276 45.8 25.0521 45.3526C21.5783 44.9052 17.9652 45.9237 16.5727 48.5026C15.7765 49.9767 15.6668 51.2472 15.9923 52.3187C16.3161 53.3845 17.0849 54.2677 18.1285 54.9566C21.0382 56.874 26.1342 57.2654 28.4593 56.4639C29.5344 56.0923 30.585 55.6449 31.6076 55.1327C31.0231 58.4846 28.8437 61.6597 25.9352 64.5209C19.6142 70.7398 9.80607 75.4602 4.46449 77.1956C4.17749 77.2889 4.01824 77.6068 4.10749 77.9067C4.19674 78.2065 4.50182 78.3745 4.78882 78.2812C10.236 76.5113 20.2355 71.6907 26.6813 65.3487C30.0116 62.0732 32.384 58.3854 32.7894 54.5086C40.3173 50.308 46.4989 42.6867 51.7845 36.2724C51.9811 36.0362 51.9548 35.6762 51.7267 35.4709C51.4986 35.2673 51.1557 35.293 50.9591 35.531C45.8887 41.6828 40.0047 49.0002 32.8489 53.1838ZM31.7546 53.7934C31.796 52.8583 31.7079 51.9087 31.4705 50.9508C30.8376 48.3847 27.9279 46.8675 24.9191 46.4802C23.0752 46.2433 21.1787 46.4387 19.6912 47.1329C18.7562 47.5687 17.9862 48.201 17.5218 49.0614C16.9122 50.1902 16.7804 51.1556 17.0301 51.9746C17.2803 52.7994 17.901 53.4621 18.7095 53.9941C21.3613 55.7423 26.0012 56.1139 28.1175 55.3836C29.3652 54.9537 30.5768 54.417 31.7546 53.7934Z" fill="black"/>
<path d="M166.25 110.835C168.183 110.835 169.75 109.268 169.75 107.335C169.75 105.402 168.183 103.835 166.25 103.835C164.317 103.835 162.75 105.402 162.75 107.335C162.75 109.268 164.317 110.835 166.25 110.835Z" fill="#E3E3E3"/>
<path fill-rule="evenodd" clip-rule="evenodd" d="M34.0581 131.481C34.6829 131.247 35.3403 130.936 35.8472 130.485C36.4492 129.95 36.6942 129.26 36.8581 128.535C37.0693 127.602 37.1539 126.609 37.41 125.675C37.5045 125.328 37.687 125.197 37.7652 125.139C37.963 124.992 38.163 124.952 38.3509 124.967C38.5737 124.984 38.88 125.073 39.0818 125.466C39.1104 125.523 39.1477 125.609 39.1728 125.726C39.1909 125.812 39.2031 126.081 39.2224 126.193C39.2708 126.466 39.311 126.74 39.3495 127.014C39.4761 127.93 39.549 128.707 39.9492 129.548C40.4923 130.69 41.0365 131.388 41.7745 131.698C42.4885 131.997 43.3413 131.941 44.4315 131.706C44.5354 131.68 44.638 131.657 44.7395 131.638C45.2202 131.55 45.6799 131.882 45.7744 132.386C45.8689 132.89 45.5632 133.38 45.0866 133.491C44.9875 133.514 44.8895 133.536 44.7926 133.556C43.3191 133.94 41.6135 135.31 40.6224 136.509C40.3173 136.879 39.8699 137.913 39.4137 138.573C39.0771 139.06 38.6985 139.38 38.3806 139.494C38.1677 139.57 37.9886 139.558 37.8405 139.519C37.6246 139.464 37.4461 139.341 37.309 139.145C37.2344 139.039 37.165 138.896 37.1317 138.713C37.116 138.624 37.1142 138.401 37.1148 138.3C37.0215 137.963 36.9077 137.635 36.8249 137.295C36.6271 136.484 36.2392 135.971 35.7784 135.294C35.3473 134.66 34.8841 134.261 34.2051 133.943C34.117 133.92 33.4042 133.736 33.1528 133.631C32.7853 133.477 32.6097 133.218 32.5461 133.078C32.4382 132.842 32.4271 132.635 32.4487 132.463C32.4808 132.208 32.5893 131.991 32.7818 131.815C32.9008 131.706 33.0787 131.6 33.3173 131.548C33.501 131.508 33.9899 131.485 34.0581 131.481ZM38.2389 130.16C38.2715 130.238 38.3071 130.316 38.3445 130.394C39.1395 132.066 40.0291 133 41.1106 133.453L41.1468 133.467C40.4235 134.033 39.7684 134.664 39.2685 135.27C39.062 135.519 38.7895 136.037 38.4944 136.568C38.2266 135.652 37.7891 135.005 37.2385 134.194C36.8173 133.576 36.3769 133.11 35.835 132.731C36.2555 132.504 36.6563 132.238 37.0057 131.928C37.5873 131.41 37.9717 130.811 38.2389 130.16Z" fill="#CCC6D9"/>
</g>
<defs>
<linearGradient id="paint0_linear_1303_279429" x1="86.9592" y1="-5.87695" x2="88.393" y2="239.952" gradientUnits="userSpaceOnUse">
<stop stop-color="#F2F2F2"/>
<stop offset="1" stop-color="#EFEFEF"/>
</linearGradient>
<linearGradient id="paint1_linear_1303_279429" x1="88.2398" y1="37.0739" x2="88.2398" y2="127.507" gradientUnits="userSpaceOnUse">
<stop stop-color="white"/>
<stop offset="0.7188" stop-color="#FAFAFA"/>
</linearGradient>
</defs>
</svg>
