<svg width="396" height="230" viewBox="0 0 396 230" fill="none" xmlns="http://www.w3.org/2000/svg">
<path d="M33.0844 227.993L373.554 228.075C381.975 209.45 389.788 190.01 390.843 169.643C392.57 136.331 376.612 108.81 346.142 94.5515C332.188 88.0211 316.453 84.931 303.877 75.706C299.183 72.263 295.505 67.8084 291.817 63.373C271.549 38.9963 242.706 20.1563 210.615 14.9174C189.375 11.4496 166.979 13.8409 149.179 26.5985C132.522 38.5374 123.543 57.8984 113.8 75.1547C111.093 79.9471 108.186 84.7794 103.904 88.2803C95.3974 95.2352 86.0363 93.023 76.0068 92.797C46.5618 92.1354 18.9028 113.062 9.36527 140.376C-1.0556 170.219 3.10476 204.929 27.2635 224.247C29.2548 225.839 30.9443 226.601 33.0844 227.993Z" fill="#F7F7F7"/>
<mask id="mask0_1576_173659" style="mask-type:luminance" maskUnits="userSpaceOnUse" x="4" y="13" width="387" height="216">
<path d="M33.0844 227.993L373.554 228.075C381.975 209.45 389.788 190.01 390.843 169.643C392.57 136.331 376.612 108.81 346.142 94.5515C332.188 88.0211 316.453 84.931 303.877 75.706C299.183 72.263 295.505 67.8084 291.817 63.373C271.549 38.9963 242.706 20.1563 210.615 14.9174C189.375 11.4496 166.979 13.8409 149.179 26.5985C132.522 38.5374 123.543 57.8984 113.8 75.1547C111.093 79.9471 108.186 84.7794 103.904 88.2803C95.3974 95.2352 86.0363 93.023 76.0068 92.797C46.5618 92.1354 18.9028 113.062 9.36527 140.376C-1.0556 170.219 3.10476 204.929 27.2635 224.247C29.2548 225.839 30.9443 226.601 33.0844 227.993Z" fill="white"/>
</mask>
<g mask="url(#mask0_1576_173659)">
<path d="M390.97 145.069C390.97 145.069 367.522 176.642 370.538 202.358C370.538 202.358 371.677 154.545 367.302 137.544C367.302 137.544 353.801 169.053 356.552 188.301C356.552 188.301 345.096 160.31 326.178 149.544C326.178 149.544 332.23 194.148 348.381 207.696C348.381 207.696 328.562 182.289 299.937 173.752C299.937 173.752 301.832 198.875 330.737 210.217C330.737 210.217 310.642 202.883 273.979 205.884C273.979 205.884 286.311 224.372 309.641 228.128H392.966C392.966 228.128 400.972 160.594 390.969 145.069H390.97Z" fill="url(#paint0_linear_1576_173659)"/>
<path d="M0 186.44C0 186.44 19.494 197.908 32.9742 216.132C32.9742 216.132 16.7985 182.914 29.241 156.364C29.241 156.364 41.6835 191.833 42.0983 212.161C42.0983 212.161 39.3422 177.936 59.5927 163.001C59.5927 163.001 58.4159 192.354 54.2679 206.974C54.2679 206.974 62.1339 181.713 92.2458 177.542C92.2458 177.542 79.4078 205.549 66.6649 213.521C66.6649 213.521 76.5235 203.655 107.217 201.166C107.217 201.166 95.6854 219.606 73.3347 220.793C73.3347 220.793 101.618 216.93 116.551 229.997H27.167C27.167 229.997 4.97754 202.205 0 186.44Z" fill="#D1D1D1"/>
<path d="M295.556 67.5879V219.095H144.284V23.1266H295.556V67.5879Z" fill="#D1D1D1"/>
</g>
<path d="M289.538 0H136.185V213.885H289.538V0Z" fill="#E8E8E8"/>
<path d="M202.77 65.1551H148.531V13.5818H202.77V65.1551ZM153.604 60.0816H197.696V18.6567H153.604V60.0816Z" fill="white"/>
<path d="M178.74 38.0039L208.703 8.03552L216.959 16.2916L186.994 46.2614L178.74 54.5174L170.484 46.2614L159.049 34.8242L167.304 26.5668L178.74 38.0039Z" fill="#FE6D60"/>
<path d="M275.368 24.8177H217.092C217.018 24.8177 216.959 24.8775 216.959 24.9514V32.9056C216.959 32.9794 217.018 33.0393 217.092 33.0393H275.368C275.441 33.0393 275.501 32.9794 275.501 32.9056V24.9514C275.501 24.8775 275.441 24.8177 275.368 24.8177Z" fill="white"/>
<path d="M275.368 39.3684H217.092C217.018 39.3684 216.959 39.4283 216.959 39.5021V47.4563C216.959 47.5301 217.018 47.59 217.092 47.59H275.368C275.441 47.59 275.501 47.5301 275.501 47.4563V39.5021C275.501 39.4283 275.441 39.3684 275.368 39.3684Z" fill="white"/>
<path d="M249.82 53.9192H217.059C217.004 53.9192 216.959 53.9642 216.959 54.0198V62.0401C216.959 62.0957 217.004 62.1408 217.059 62.1408H249.82C249.875 62.1408 249.92 62.0957 249.92 62.0401V54.0198C249.92 53.9642 249.875 53.9192 249.82 53.9192Z" fill="white"/>
<path d="M202.77 132.346H148.531V80.7726H202.77V132.346ZM153.604 127.272H197.696V85.8475H153.604V127.272Z" fill="white"/>
<path d="M275.368 92.0099H217.092C217.018 92.0099 216.959 92.0698 216.959 92.1436V100.098C216.959 100.172 217.018 100.232 217.092 100.232H275.368C275.441 100.232 275.501 100.172 275.501 100.098V92.1436C275.501 92.0698 275.441 92.0099 275.368 92.0099Z" fill="white"/>
<path d="M275.368 106.559H217.092C217.018 106.559 216.959 106.619 216.959 106.693V114.647C216.959 114.721 217.018 114.781 217.092 114.781H275.368C275.441 114.781 275.501 114.721 275.501 114.647V106.693C275.501 106.619 275.441 106.559 275.368 106.559Z" fill="white"/>
<path d="M249.82 121.11H217.059C217.004 121.11 216.959 121.155 216.959 121.211V129.231C216.959 129.287 217.004 129.332 217.059 129.332H249.82C249.875 129.332 249.92 129.287 249.92 129.231V121.211C249.92 121.155 249.875 121.11 249.82 121.11Z" fill="white"/>
<path d="M202.77 199.538H148.531V147.965H202.77V199.538ZM153.604 194.465H197.696V153.04H153.604V194.465Z" fill="white"/>
<path d="M275.368 159.201H217.092C217.018 159.201 216.959 159.261 216.959 159.334V167.289C216.959 167.363 217.018 167.422 217.092 167.422H275.368C275.441 167.422 275.501 167.363 275.501 167.289V159.334C275.501 159.261 275.441 159.201 275.368 159.201Z" fill="white"/>
<path d="M275.368 173.752H217.092C217.018 173.752 216.959 173.811 216.959 173.885V181.839C216.959 181.913 217.018 181.973 217.092 181.973H275.368C275.441 181.973 275.501 181.913 275.501 181.839V173.885C275.501 173.811 275.441 173.752 275.368 173.752Z" fill="white"/>
<path d="M249.82 188.302H217.059C217.004 188.302 216.959 188.347 216.959 188.403V196.423C216.959 196.479 217.004 196.524 217.059 196.524H249.82C249.875 196.524 249.92 196.479 249.92 196.423V188.403C249.92 188.347 249.875 188.302 249.82 188.302Z" fill="white"/>
<path d="M60.6925 208.434L59.477 211.145L68.3724 220.275C69.8827 221.825 70.2934 224.139 69.4087 226.115L43.238 214.381L48.3781 202.912L60.6938 208.434H60.6925Z" fill="#4F5285"/>
<path d="M53.5637 212.982C53.0249 214.184 51.6138 214.723 50.4108 214.184C49.2077 213.645 48.6703 212.234 49.2091 211.03C49.7479 209.829 51.159 209.29 52.3621 209.829C53.5637 210.367 54.1026 211.779 53.5637 212.982Z" fill="#373660"/>
<path d="M60.5491 212.245L58.8651 213.634C58.4944 213.94 58.4544 214.493 58.7783 214.848C59.0732 215.172 59.5665 215.216 59.9152 214.949L61.7838 213.51L60.5491 212.243V212.245Z" fill="#373660"/>
<path d="M62.7182 214.478L61.0342 215.867C60.6635 216.173 60.6235 216.726 60.9474 217.081C61.2423 217.405 61.7356 217.449 62.0843 217.182L63.9529 215.743L62.7182 214.476V214.478Z" fill="#373660"/>
<path d="M65.1739 216.996L63.4899 218.385C63.1192 218.691 63.0792 219.244 63.403 219.599C63.698 219.923 64.1913 219.967 64.5399 219.7L66.4086 218.261L65.1739 216.994V216.996Z" fill="#373660"/>
<path d="M43.2405 214.362L42.3698 216.305L68.5418 228.037L69.4125 226.093L43.2405 214.362Z" fill="#373660"/>
<path d="M95.5655 125.638H66.3989L61.8555 164.859C61.3401 169.311 60.0764 173.643 58.1168 177.671L45.6592 203.301L64.5482 210.242L76.3637 180.868C77.1822 178.832 77.6687 176.676 77.8024 174.485L80.1644 135.771L80.6315 213.345H99.493L95.5669 125.636L95.5655 125.638Z" fill="#373660"/>
<path d="M96.4186 213.346V216.316L108.268 221.008C110.28 221.805 111.602 223.749 111.602 225.913H82.9219V213.346H96.4186Z" fill="#4F5285"/>
<path d="M91.7083 220.945C92.0086 219.662 91.2123 218.378 89.9296 218.078C88.6469 217.777 87.3635 218.574 87.0631 219.857C86.7627 221.139 87.5591 222.423 88.8418 222.724C90.1245 223.024 91.4079 222.227 91.7083 220.945Z" fill="#373660"/>
<path d="M97.8462 216.883L96.8788 218.84C96.6652 219.27 96.8554 219.792 97.2964 219.984C97.6974 220.159 98.1673 219.998 98.374 219.612L99.4916 217.535L97.8462 216.884V216.883Z" fill="#373660"/>
<path d="M100.739 218.034L99.7714 219.991C99.5578 220.421 99.748 220.943 100.189 221.135C100.59 221.31 101.06 221.149 101.267 220.763L102.384 218.686L100.739 218.035V218.034Z" fill="#373660"/>
<path d="M104.009 219.325L103.042 221.282C102.828 221.712 103.018 222.235 103.459 222.426C103.86 222.601 104.33 222.44 104.537 222.054L105.654 219.977L104.009 219.326V219.325Z" fill="#373660"/>
<path d="M111.602 225.915H82.9219V228.044H111.602V225.915Z" fill="#373660"/>
<path d="M82.5181 65.723C79.4864 66.3363 77.8024 70.6573 78.756 75.3738L79.5953 79.5239C79.9287 81.1724 80.112 82.847 80.1437 84.5285L80.2581 90.5972L87.2573 89.1569L85.9715 82.8029C89.0032 82.1895 90.6872 77.8686 89.7336 73.152C88.78 68.4355 85.5485 65.1082 82.5167 65.7216L82.5181 65.723Z" fill="#FFD1C1"/>
<mask id="mask1_1576_173659" style="mask-type:luminance" maskUnits="userSpaceOnUse" x="78" y="65" width="13" height="26">
<path d="M82.5181 65.723C79.4864 66.3363 77.8024 70.6573 78.756 75.3738L79.5953 79.5239C79.9287 81.1724 80.112 82.847 80.1437 84.5285L80.2581 90.5972L87.2573 89.1569L85.9715 82.8029C89.0032 82.1895 90.6872 77.8686 89.7336 73.152C88.78 68.4355 85.5485 65.1082 82.5167 65.7216L82.5181 65.723Z" fill="white"/>
</mask>
<g mask="url(#mask1_1576_173659)">
<path d="M89.9638 74.2822C89.9638 74.2822 85.4768 70.8957 81.7023 71.6593L81.3661 69.1797L89.9238 70.2135C89.9238 70.2135 90.7493 73.5765 89.9638 74.2808" fill="#FFB2A0"/>
</g>
<path d="M85.9729 82.8029C85.9729 82.8029 83.7156 82.9159 81.7588 80.2833C81.7588 80.2833 83.0252 84.2583 86.192 83.8848L85.9729 82.8029Z" fill="#FFB2A0"/>
<path d="M111.777 102.032L99.154 90.2637C95.9445 87.2714 91.7194 85.6064 87.3303 85.6064H75.8483C75.7119 85.6064 75.574 85.6078 75.4376 85.6119C69.6512 85.7484 64.4807 89.2754 62.0815 94.5447L55.8857 108.15L65.5694 113.969L64.1458 125.639H97.7098L96.2036 108.667L101.154 113.667L111.776 102.033L111.777 102.032Z" fill="#FFC967"/>
<mask id="mask2_1576_173659" style="mask-type:luminance" maskUnits="userSpaceOnUse" x="55" y="85" width="57" height="41">
<path d="M111.777 102.032L99.154 90.2637C95.9445 87.2714 91.7194 85.6064 87.3303 85.6064H75.8483C75.7119 85.6064 75.574 85.6078 75.4376 85.6119C69.6512 85.7484 64.4807 89.2754 62.0815 94.5447L55.8857 108.15L65.5694 113.969L64.1458 125.639H97.7098L96.2036 108.667L101.154 113.667L111.776 102.033L111.777 102.032Z" fill="white"/>
</mask>
<g mask="url(#mask2_1576_173659)">
<path d="M58.1829 98.9415C58.1829 98.9415 65.3585 111.292 66.0103 110.51C66.6621 109.727 69.1413 99.5493 69.1413 99.5493L98.1011 128.385L95.7226 129.163H55.8871L53.2261 107.248L58.1829 98.9428V98.9415Z" fill="#FFA648"/>
</g>
<path d="M86.9375 62.863C83.0652 60.9113 80.3366 65.1427 80.3366 65.1427C77.4179 65.2874 76.6682 66.9979 76.4161 68.7966C76.1639 70.5953 79.6173 79.6328 79.6173 79.6328L80.0665 75.4979C79.8019 75.2456 79.5911 74.8611 79.5002 74.4076C79.3196 73.5131 79.6669 72.6875 80.2774 72.5648C80.8879 72.4408 81.5287 73.0665 81.7092 73.9611C81.7243 74.0369 81.734 74.1099 81.7422 74.1844C81.7574 74.1747 81.7712 74.1651 81.785 74.1554C82.3706 73.7612 82.2563 70.0494 82.2563 70.0494L94.0938 70.3582C94.0938 70.3582 91.3542 65.0917 86.9375 62.8644V62.863Z" fill="#373660"/>
<path d="M100.393 106.661L54.4622 60.7239L41.8089 73.3794L87.7382 119.318L100.393 131.974L113.046 119.318L130.575 101.786L117.92 89.1307L100.393 106.661Z" fill="#FE6D60"/>
<mask id="mask3_1576_173659" style="mask-type:luminance" maskUnits="userSpaceOnUse" x="41" y="60" width="90" height="72">
<path d="M100.393 106.661L54.4622 60.7239L41.8089 73.3794L87.7382 119.318L100.393 131.974L113.046 119.318L130.575 101.786L117.92 89.1307L100.393 106.661Z" fill="white"/>
</mask>
<g mask="url(#mask3_1576_173659)">
<path d="M106.145 126.221C106.145 126.221 107.425 120.176 108.284 119.46C109.142 118.745 114.504 117.158 114.504 117.158C114.504 117.158 111.218 124.075 110.323 124.432C109.429 124.79 106.146 126.221 106.146 126.221" fill="#E63E36"/>
<path d="M78.4886 111.321C78.4886 111.321 90.6238 111.314 91.1268 111.104C91.656 110.88 94.831 107.29 95.1494 108.456C95.3464 109.181 94.4851 110.435 95.5807 110.275C96.6763 110.115 101.279 108.929 101.279 108.929C101.279 108.929 97.3515 116.726 95.7888 117.3C94.2261 117.875 86.5999 120.701 86.4511 120.535C86.3022 120.369 78.49 111.323 78.49 111.323L78.4886 111.321Z" fill="#E63E36"/>
</g>
<path d="M65.4756 113.797L56.4494 108.488L54.6744 114.442C54.6744 114.442 52.1677 122.73 55.8871 125.639C59.6781 128.605 93.2862 116.664 93.2862 116.664L93.7244 112.112L65.477 113.797H65.4756Z" fill="#FFD1C1"/>
<mask id="mask4_1576_173659" style="mask-type:luminance" maskUnits="userSpaceOnUse" x="53" y="108" width="41" height="19">
<path d="M65.4756 113.797L56.4494 108.488L54.6744 114.442C54.6744 114.442 52.1677 122.73 55.8871 125.639C59.6781 128.605 93.2862 116.664 93.2862 116.664L93.7244 112.112L65.477 113.797H65.4756Z" fill="white"/>
</mask>
<g mask="url(#mask4_1576_173659)">
<path d="M65.4756 113.797L53.8476 114.668L56.714 106.333L65.4756 113.797Z" fill="#FFB2A0"/>
</g>
<path d="M91.4851 112.41C91.4851 112.41 94.8296 107.659 95.1493 108.454C95.469 109.25 94.6835 109.541 94.8062 110.461C95.0101 111.993 102.646 108.001 102.895 108.529C103.145 109.057 101.986 115.252 100.739 115.918C97.5513 117.619 90.6665 117.267 90.6665 117.267L91.4864 112.409L91.4851 112.41Z" fill="#FFD1C1"/>
<path d="M115.531 116.833C115.531 116.833 109.837 118.588 109.288 119.214C108.74 119.839 108.016 124.349 108.133 124.232C108.251 124.115 111.902 122.506 112.842 121.723C113.782 120.941 115.531 116.833 115.531 116.833Z" fill="#FFD1C1"/>
<path d="M334.303 67.5423C334.303 67.5423 340.478 67.1963 341.751 75.0582C343.023 82.92 343.023 86.8137 343.023 86.8137L325.956 86.4884C325.956 86.4884 325.806 75.3573 327.228 72.8116C328.65 70.2658 334.303 67.5423 334.303 67.5423Z" fill="#373660"/>
<path d="M355.776 212.196L356.754 214.38L349.588 221.734C348.372 222.983 348.041 224.848 348.755 226.438L369.838 216.986L365.697 207.747L355.774 212.195L355.776 212.196Z" fill="#4F5285"/>
<path d="M361.518 215.86C361.952 216.829 363.089 217.262 364.058 216.828C365.027 216.393 365.459 215.256 365.025 214.287C364.591 213.318 363.454 212.886 362.486 213.32C361.517 213.754 361.084 214.891 361.518 215.86Z" fill="#373660"/>
<path d="M355.89 215.266L357.246 216.385C357.545 216.632 357.577 217.077 357.317 217.364C357.08 217.626 356.681 217.66 356.402 217.445L354.895 216.286L355.89 215.265V215.266Z" fill="#373660"/>
<path d="M354.143 217.065L355.499 218.184C355.798 218.431 355.83 218.876 355.569 219.162C355.332 219.424 354.934 219.459 354.654 219.244L353.148 218.085L354.143 217.063V217.065Z" fill="#373660"/>
<path d="M352.165 219.093L353.521 220.213C353.82 220.459 353.852 220.905 353.592 221.191C353.355 221.453 352.956 221.488 352.677 221.273L351.17 220.113L352.165 219.092V219.093Z" fill="#373660"/>
<path d="M369.835 217.018L348.751 226.469L349.452 228.033L370.536 218.583L369.835 217.018Z" fill="#373660"/>
<path d="M326.995 216.154V218.546L317.449 222.326C315.829 222.968 314.764 224.534 314.764 226.277H337.868V216.154H326.995Z" fill="#4F5285"/>
<path d="M332.659 223.767C333.72 223.767 334.58 222.907 334.58 221.846C334.58 220.785 333.72 219.925 332.659 219.925C331.598 219.925 330.738 220.785 330.738 221.846C330.738 222.907 331.598 223.767 332.659 223.767Z" fill="#373660"/>
<path d="M325.844 219.003L326.624 220.579C326.795 220.927 326.642 221.346 326.288 221.501C325.964 221.643 325.587 221.512 325.42 221.201L324.52 219.528L325.846 219.003H325.844Z" fill="#373660"/>
<path d="M323.516 219.929L324.296 221.506C324.466 221.853 324.313 222.272 323.959 222.428C323.635 222.57 323.258 222.439 323.091 222.127L322.191 220.454L323.517 219.929H323.516Z" fill="#373660"/>
<path d="M320.881 220.971L321.661 222.548C321.832 222.895 321.679 223.314 321.324 223.47C321.001 223.612 320.623 223.481 320.456 223.169L319.556 221.496L320.882 220.971H320.881Z" fill="#373660"/>
<path d="M337.868 226.279H314.764V227.993H337.868V226.279Z" fill="#373660"/>
<path d="M335.17 69.5408C338.201 70.1542 339.885 74.4752 338.932 79.1917L338.093 83.3418C337.759 84.9902 337.576 86.6649 337.544 88.3464L337.43 94.4151L330.431 92.9747L331.716 86.6208C328.685 86.0074 327.001 81.6864 327.954 76.9699C328.908 72.2533 332.139 68.9261 335.171 69.5395L335.17 69.5408Z" fill="#FFD1C1"/>
<mask id="mask5_1576_173659" style="mask-type:luminance" maskUnits="userSpaceOnUse" x="327" y="69" width="13" height="26">
<path d="M335.17 69.5408C338.201 70.1542 339.885 74.4752 338.932 79.1917L338.093 83.3418C337.759 84.9902 337.576 86.6649 337.544 88.3464L337.43 94.4151L330.431 92.9747L331.716 86.6208C328.685 86.0074 327.001 81.6864 327.954 76.9699C328.908 72.2533 332.139 68.9261 335.171 69.5395L335.17 69.5408Z" fill="white"/>
</mask>
<g mask="url(#mask5_1576_173659)">
<path d="M327.114 79.0594C327.234 78.9698 337.342 77.546 337.551 77.1766C337.762 76.8072 337.699 71.1218 337.699 71.1218C337.699 71.1218 336.213 70.5291 335.702 70.7096C335.192 70.8902 333.54 75.6054 332.549 75.6357C331.558 75.666 327.778 74.8914 327.686 75.4551C327.593 76.0202 327.114 79.0594 327.114 79.0594Z" fill="#FFB2A0"/>
</g>
<path d="M331.715 86.6221C331.715 86.6221 333.972 86.7352 335.929 84.1026C335.929 84.1026 334.663 88.0776 331.496 87.7041L331.715 86.6221Z" fill="#FFB2A0"/>
<path d="M337.922 69.8537L336.84 76.0202H325.027C325.027 76.0202 326.863 67.1564 334.909 67.5409C334.909 67.5409 337.472 68.1294 337.922 69.8551V69.8537Z" fill="#373660"/>
<path d="M339.191 77.0071C339.191 77.0071 340.074 75.2125 340.616 76.6846C341.308 78.5646 338.578 79.5969 338.578 79.5969L339.192 77.0071H339.191Z" fill="#FFD1C1"/>
<path d="M364.722 208.186L359.647 192.98L348.383 196.997L356.801 211.736L364.722 208.186Z" fill="#FFD1C1"/>
<mask id="mask6_1576_173659" style="mask-type:luminance" maskUnits="userSpaceOnUse" x="348" y="192" width="17" height="20">
<path d="M364.722 208.186L359.647 192.98L348.383 196.997L356.801 211.736L364.722 208.186Z" fill="white"/>
</mask>
<g mask="url(#mask6_1576_173659)">
<path d="M349.882 202.759C349.882 202.759 358.758 199.431 361.697 196.544L360.81 193.271L347.275 197.876L349.882 202.758V202.759Z" fill="#FFB2A0"/>
</g>
<path d="M336.571 216.155L338.19 200.207L326.272 199.239L327.891 216.136L336.571 216.155Z" fill="#FFD1C1"/>
<mask id="mask7_1576_173659" style="mask-type:luminance" maskUnits="userSpaceOnUse" x="326" y="199" width="13" height="18">
<path d="M336.571 216.155L338.19 200.207L326.272 199.239L327.891 216.136L336.571 216.155Z" fill="white"/>
</mask>
<g mask="url(#mask7_1576_173659)">
<path d="M325.307 205.793C325.307 205.793 332.425 205.714 339.097 202.761L339.157 198.777L325.248 199.238L325.307 205.791V205.793Z" fill="#FFB2A0"/>
</g>
<path d="M351.92 131.156L346.32 97.0131C345.839 94.0815 343.818 91.7356 341.168 90.746C340.14 93.1883 337.872 94.4081 336.002 95.0132C333.771 95.7354 331.317 95.4501 329.371 94.1421C327.557 92.9223 326.962 91.3952 326.773 90.6647C323.874 91.6488 321.69 94.2386 321.337 97.4335L317.612 131.155C317.612 131.155 313.376 162.954 313.384 171.174C313.39 176.412 318.196 203.29 318.196 203.29C318.196 203.29 353.691 201.444 368.685 192.054C368.685 192.054 354.206 145.099 351.92 131.155V131.156Z" fill="#FFC967"/>
<mask id="mask8_1576_173659" style="mask-type:luminance" maskUnits="userSpaceOnUse" x="313" y="90" width="56" height="114">
<path d="M351.92 131.156L346.32 97.0131C345.839 94.0815 343.818 91.7356 341.168 90.746C340.14 93.1883 337.872 94.4081 336.002 95.0132C333.771 95.7354 331.317 95.4501 329.371 94.1421C327.557 92.9223 326.962 91.3952 326.773 90.6647C323.874 91.6488 321.69 94.2386 321.337 97.4335L317.612 131.155C317.612 131.155 313.376 162.954 313.384 171.174C313.39 176.412 318.196 203.29 318.196 203.29C318.196 203.29 353.691 201.444 368.685 192.054C368.685 192.054 354.206 145.099 351.92 131.155V131.156Z" fill="white"/>
</mask>
<g mask="url(#mask8_1576_173659)">
<path d="M356.39 146.352C356.39 146.352 337.12 131.833 336.243 131.708C335.367 131.582 327.497 150.264 326.178 149.544C322.465 147.518 315.22 143.722 315.22 143.348C315.22 142.973 327.734 117.231 329.861 116.209C331.989 115.186 360.27 133.541 359.769 135.566C359.269 137.59 356.39 146.352 356.39 146.352Z" fill="#FFA648"/>
</g>
<path d="M329.371 94.1422C331.317 95.4502 333.771 95.7355 336.002 95.0132C337.872 94.4082 340.14 93.1884 341.168 90.746C340.285 90.4166 339.333 90.2374 338.343 90.2374H329.371C328.466 90.2374 327.59 90.3877 326.773 90.6647C326.962 91.3952 327.557 92.9224 329.371 94.1422Z" fill="#FFD1C1"/>
<mask id="mask9_1576_173659" style="mask-type:luminance" maskUnits="userSpaceOnUse" x="326" y="90" width="16" height="6">
<path d="M329.371 94.1422C331.317 95.4502 333.771 95.7355 336.002 95.0132C337.872 94.4082 340.14 93.1884 341.168 90.746C340.285 90.4166 339.333 90.2374 338.343 90.2374H329.371C328.466 90.2374 327.59 90.3877 326.773 90.6647C326.962 91.3952 327.557 92.9224 329.371 94.1422Z" fill="white"/>
</mask>
<g mask="url(#mask9_1576_173659)">
<path d="M327.686 90.2374C327.686 90.2374 328.752 94.5446 335.587 95.2889C335.587 95.2889 329.159 98.2109 325.952 90.6647L327.687 90.2374H327.686Z" fill="#FFB2A0"/>
</g>
<path d="M332.156 95.2723C332.156 95.2723 329.331 98.3156 327.687 97.5493C326.043 96.7843 325.432 91.2615 325.432 91.2615C325.432 91.2615 326.022 90.8797 326.773 90.6647C326.773 90.6647 328.692 94.6934 332.156 95.2723Z" fill="white"/>
<path d="M334.621 95.3274C334.621 95.3274 336.399 98.6547 338.458 98.4452C340.517 98.2343 342.866 91.6226 342.866 91.6226C342.866 91.6226 342.081 91.0258 341.168 90.746C341.168 90.746 339.95 94.1586 334.62 95.3274H334.621Z" fill="white"/>
<path d="M316.489 112.311L314.707 120.706L304.669 145.069C304.669 145.069 299.715 148.935 299.951 149.328C300.186 149.721 302.697 148.151 303.247 149.328C303.797 150.505 299.779 155.45 299.943 155.763C300.108 156.078 305.522 156.94 306.463 155.763C307.405 154.586 308.887 146.978 308.887 146.978L319.067 129.644L322.464 115.758L316.487 112.311H316.489Z" fill="#FFD1C1"/>
<mask id="mask10_1576_173659" style="mask-type:luminance" maskUnits="userSpaceOnUse" x="299" y="112" width="24" height="45">
<path d="M316.489 112.311L314.707 120.706L304.669 145.069C304.669 145.069 299.715 148.935 299.951 149.328C300.186 149.721 302.697 148.151 303.247 149.328C303.797 150.505 299.779 155.45 299.943 155.763C300.108 156.078 305.522 156.94 306.463 155.763C307.405 154.586 308.887 146.978 308.887 146.978L319.067 129.644L322.464 115.758L316.487 112.311H316.489Z" fill="white"/>
</mask>
<g mask="url(#mask10_1576_173659)">
<path d="M314.699 114.781L321.039 120.705C321.039 120.705 310.181 141.079 310.664 143.953C310.664 143.953 326.896 117.773 326.263 116.586C325.631 115.4 315.975 108.354 315.578 108.512C315.182 108.671 314.697 114.781 314.697 114.781H314.699Z" fill="#FFB2A0"/>
</g>
<path d="M365.694 122.14L344.419 109.866L356.691 88.5875L342.768 80.5548L330.497 101.833L309.222 89.5593L301.191 103.484L322.465 115.758L310.194 137.036L324.116 145.069L336.388 123.791L357.662 136.065L365.694 122.14Z" fill="#FE6C61"/>
<mask id="mask11_1576_173659" style="mask-type:luminance" maskUnits="userSpaceOnUse" x="301" y="80" width="65" height="66">
<path d="M365.694 122.14L344.419 109.866L356.691 88.5875L342.768 80.5548L330.497 101.833L309.222 89.5593L301.191 103.484L322.465 115.758L310.194 137.036L324.116 145.069L336.388 123.791L357.662 136.065L365.694 122.14Z" fill="white"/>
</mask>
<g mask="url(#mask11_1576_173659)">
<path d="M341.98 127.595L358.379 117.464L355.287 115.161L338.477 126.084L341.98 127.595Z" fill="#E63E36"/>
<path d="M330.307 135.203C330.307 135.203 327.658 137.337 327.032 137.299C326.407 137.262 321.311 133.537 321.311 133.537L333.442 130.751L330.307 135.203Z" fill="#E63E36"/>
</g>
<path d="M356.892 110.702L351.935 96.8533L346.422 106.413L348.389 111.54L330.494 127.339C329.556 127.387 322.935 127.747 323.239 128.354C323.565 129.008 327.064 128.028 326.917 129.336C326.768 130.644 320.558 132.67 320.754 133.127C320.95 133.585 325.984 135.808 327.161 135.546C328.337 135.284 334.167 129.555 334.167 129.555L334.16 129.551C336.721 128.08 343.661 124.066 349.558 120.391C349.994 120.119 354.709 117.11 354.709 117.11C356.84 115.744 357.745 113.088 356.892 110.705V110.702Z" fill="#FFD1C1"/>
<mask id="mask12_1576_173659" style="mask-type:luminance" maskUnits="userSpaceOnUse" x="320" y="96" width="38" height="40">
<path d="M356.892 110.702L351.935 96.8533L346.422 106.413L348.389 111.54L330.494 127.339C329.556 127.387 322.935 127.747 323.239 128.354C323.565 129.008 327.064 128.028 326.917 129.336C326.768 130.644 320.558 132.67 320.754 133.127C320.95 133.585 325.984 135.808 327.161 135.546C328.337 135.284 334.167 129.555 334.167 129.555L334.16 129.551C336.721 128.08 343.661 124.066 349.558 120.391C349.994 120.119 354.709 117.11 354.709 117.11C356.84 115.744 357.745 113.088 356.892 110.705V110.702Z" fill="white"/>
</mask>
<g mask="url(#mask12_1576_173659)">
<path d="M348.39 111.54L352.703 108.678C352.703 108.678 349.67 108.975 349.074 108.321C348.479 107.666 345.803 103.027 345.803 103.027L344.791 104.157L348.388 111.54" fill="#FFB2A0"/>
</g>
<path d="M106.073 45.579C113.971 37.6801 113.971 24.8733 106.073 16.9743C98.1756 9.07535 85.3711 9.07535 77.4735 16.9743C69.576 24.8733 69.576 37.6801 77.4735 45.579C85.3711 53.478 98.1756 53.478 106.073 45.579Z" fill="#FFC967"/>
<path d="M99.3014 24.4621C98.4112 18.9668 91.7731 19.0371 91.7731 19.0371C91.7731 19.0371 85.135 18.9668 84.2448 24.4621C83.3546 29.9574 88.022 37.5256 88.022 37.5256H95.5256C95.5256 37.5256 100.193 29.9574 99.3028 24.4621H99.3014Z" fill="white"/>
<path d="M94.0138 38.0508H89.3284C89.2485 38.0508 89.1837 37.986 89.1837 37.9061V27.3428C89.1837 25.9713 90.3 24.8549 91.6711 24.8549C93.0423 24.8549 94.1585 25.9713 94.1585 27.3428V37.9061C94.1585 37.986 94.0938 38.0508 94.0138 38.0508ZM89.4718 37.7613H93.8691V27.3428C93.8691 26.1298 92.8825 25.1444 91.6711 25.1444C90.4598 25.1444 89.4731 26.1312 89.4731 27.3428V37.7613H89.4718Z" fill="#FE6D60"/>
<path d="M96.5178 39.1479H87.0037C86.5558 39.1479 86.192 38.784 86.192 38.3361C86.192 37.8881 86.5558 37.5242 87.0037 37.5242H96.5178C96.9656 37.5242 97.3294 37.8881 97.3294 38.3361C97.3294 38.784 96.9656 39.1479 96.5178 39.1479Z" fill="#373660"/>
<path d="M96.5315 41.7405H87.0174C86.5696 41.7405 86.2057 41.3766 86.2057 40.9286C86.2057 40.4807 86.5696 40.1168 87.0174 40.1168H96.5315C96.9794 40.1168 97.3432 40.4807 97.3432 40.9286C97.3432 41.3766 96.9794 41.7405 96.5315 41.7405Z" fill="#373660"/>
<path d="M94.3666 39.1479H88.9743V40.1182H94.3666V39.1479Z" fill="#4F5285"/>
<path d="M92.5917 43.5171H90.7492C89.7694 43.5171 88.9743 42.7218 88.9743 41.7418H94.3666C94.3666 42.7218 93.5715 43.5171 92.5917 43.5171Z" fill="#4F5285"/>
<path d="M374.411 31.3274H335.379C334.351 31.3274 333.517 32.1613 333.517 33.1895V51.6353C333.517 52.6635 334.351 53.4974 335.379 53.4974H343.112L341.939 61.0147C341.826 61.7355 342.671 62.2069 343.226 61.7328C346.169 59.216 352.15 54.0791 352.587 53.496H374.411C375.439 53.496 376.273 52.6622 376.273 51.634V33.1881C376.273 32.1599 375.439 31.326 374.411 31.326V31.3274Z" fill="#E8E8E8"/>
<path d="M372.935 35.2983H336.793C336.722 35.2983 336.664 35.3563 336.664 35.4279V37.5891C336.664 37.6606 336.722 37.7186 336.793 37.7186H372.935C373.007 37.7186 373.065 37.6606 373.065 37.5891V35.4279C373.065 35.3563 373.007 35.2983 372.935 35.2983Z" fill="white"/>
<path d="M372.967 41.203H336.825C336.753 41.203 336.695 41.261 336.695 41.3326V43.4937C336.695 43.5653 336.753 43.6233 336.825 43.6233H372.967C373.039 43.6233 373.097 43.5653 373.097 43.4937V41.3326C373.097 41.261 373.039 41.203 372.967 41.203Z" fill="white"/>
<path d="M357.304 47.1076H336.825C336.771 47.1076 336.727 47.1514 336.727 47.2055V49.43C336.727 49.4841 336.771 49.5279 336.825 49.5279H357.304C357.358 49.5279 357.402 49.4841 357.402 49.43V47.2055C357.402 47.1514 357.358 47.1076 357.304 47.1076Z" fill="white"/>
<path d="M387.733 227.701H17.5468V228.449H387.733V227.701Z" fill="#373660"/>
<defs>
<linearGradient id="paint0_linear_1576_173659" x1="273.98" y1="183.671" x2="396" y2="183.671" gradientUnits="userSpaceOnUse">
<stop stop-color="white"/>
<stop offset="1" stop-color="#E8E8E8"/>
</linearGradient>
</defs>
</svg>
