<svg width="371" height="319" viewBox="0 0 371 319" fill="none" xmlns="http://www.w3.org/2000/svg">
<g clip-path="url(#clip0_7_488)">
<g style="mix-blend-mode:multiply">
<path d="M165.516 270.896L19.9114 187.006C17.46 185.591 17.7604 183.12 20.5963 181.477L119.541 124.463C122.377 122.832 126.667 122.652 129.13 124.067L274.735 207.969C277.186 209.385 276.886 211.855 274.05 213.498L175.106 270.513C172.27 272.144 167.98 272.324 165.516 270.908V270.896Z" fill="#EBF2FC"/>
</g>
<path d="M18.866 124.787V129.704C18.9021 131.743 19.8153 133.673 21.3895 135.352C22.7594 136.816 24.634 138.099 26.8811 139.118C30.438 140.725 34.9082 141.697 39.7749 141.697C42.743 141.697 45.5549 141.337 48.1144 140.701C49.1718 140.437 50.1933 140.114 51.1426 139.754C51.6473 139.562 52.1279 139.37 52.5966 139.154C54.8317 138.147 56.7183 136.876 58.0882 135.436C59.7104 133.733 60.6357 131.791 60.6717 129.728V124.811C60.6116 122.76 59.6864 120.841 58.0761 119.162C56.6942 117.711 54.8196 116.452 52.5846 115.432C52.1159 115.216 51.6352 115.024 51.1305 114.833C50.1692 114.473 49.1598 114.161 48.1024 113.885C45.5428 113.237 42.731 112.89 39.7629 112.89C34.8961 112.89 30.426 113.849 26.8691 115.468C24.622 116.488 22.7474 117.771 21.3775 119.234C19.8153 120.901 18.9021 122.796 18.854 124.823L18.866 124.787Z" fill="#E0EDF8"/>
<path d="M25.6313 123.143V127.629C25.6674 129.5 26.4965 131.251 27.9385 132.786C29.1883 134.117 30.9066 135.292 32.9615 136.216C36.2059 137.691 40.2916 138.566 44.7257 138.566C47.4294 138.566 50.013 138.243 52.3442 137.655C53.3055 137.415 54.2428 137.127 55.108 136.791C55.5647 136.624 56.0093 136.444 56.4299 136.24C58.4727 135.316 60.191 134.165 61.4528 132.846C62.9308 131.299 63.784 129.524 63.8201 127.629V123.143C63.772 121.273 62.9188 119.522 61.4528 117.987C60.191 116.667 58.4847 115.504 56.4299 114.581C55.9973 114.389 55.5647 114.209 55.108 114.029C54.2308 113.705 53.3055 113.405 52.3442 113.165C50.013 112.578 47.4414 112.254 44.7257 112.254C40.2916 112.254 36.2059 113.129 32.9615 114.605C30.9066 115.54 29.2003 116.703 27.9385 118.034C26.5086 119.558 25.6794 121.285 25.6313 123.131V123.143Z" fill="#E7972F"/>
<path d="M56.4419 114.581V136.24C58.4847 135.316 60.2031 134.165 61.4648 132.846V117.987C60.2031 116.667 58.4967 115.504 56.4419 114.581Z" fill="#EFC077"/>
<path d="M27.9385 118.046V132.786C29.1882 134.117 30.9066 135.292 32.9614 136.216V114.604C30.9066 115.54 29.2002 116.703 27.9385 118.034V118.046Z" fill="#BD811E"/>
<path d="M52.3442 113.178V137.655C53.3056 137.415 54.2429 137.127 55.1081 136.792V114.029C54.2308 113.705 53.3056 113.405 52.3442 113.166V113.178Z" fill="#ECAF45"/>
<path d="M44.7257 134.369C55.2712 134.369 63.8201 129.418 63.8201 123.311C63.8201 117.205 55.2712 112.254 44.7257 112.254C34.1802 112.254 25.6313 117.205 25.6313 123.311C25.6313 129.418 34.1802 134.369 44.7257 134.369Z" fill="#EAA644"/>
<path d="M44.7258 132.642C49.5204 132.642 54.0146 131.575 57.3552 129.632C60.4074 127.869 62.0897 125.626 62.0897 123.311C62.0897 120.997 60.4074 118.754 57.3552 116.991C54.0146 115.048 49.5204 113.981 44.7258 113.981C39.9312 113.981 35.437 115.048 32.0963 116.991C29.0441 118.754 27.3618 120.997 27.3618 123.311C27.3618 125.626 29.0441 127.869 32.0963 129.632C35.437 131.575 39.9312 132.642 44.7258 132.642Z" fill="#BD811E"/>
<path d="M44.7256 132.066C49.4241 132.066 53.8102 131.023 57.0667 129.14C59.9266 127.485 61.5128 125.41 61.5128 123.311C61.5128 121.213 59.9386 119.15 57.0667 117.483C53.8102 115.6 49.4241 114.557 44.7256 114.557C40.0272 114.557 35.6411 115.6 32.3846 117.483C29.5247 119.138 27.9385 121.213 27.9385 123.311C27.9385 125.41 29.5126 127.473 32.3846 129.14C35.6411 131.023 40.0272 132.066 44.7256 132.066Z" fill="#E7972F"/>
<path d="M29.0923 123.312C29.0923 124.979 30.4622 126.694 32.9616 128.145C35.1607 129.416 37.9245 130.291 40.9527 130.675C42.1663 130.831 43.4401 130.915 44.7259 130.915C45.8795 130.915 47.009 130.855 48.1025 130.723C48.6553 130.663 49.208 130.579 49.7368 130.483C50.8303 130.291 51.8877 130.028 52.8851 129.716C54.1949 129.296 55.4086 128.768 56.4901 128.145C58.9895 126.706 60.3594 124.991 60.3594 123.312C60.3594 121.633 58.9895 119.93 56.4901 118.478C53.4018 116.691 49.2201 115.708 44.7259 115.708C42.8633 115.708 41.0488 115.876 39.3544 116.2C38.273 116.404 37.2275 116.679 36.2542 117.015C35.7855 117.171 35.3289 117.339 34.8963 117.531C34.2234 117.819 33.5745 118.131 32.9736 118.478C31.9883 119.042 31.1832 119.654 30.5703 120.289C29.621 121.261 29.1043 122.292 29.1043 123.312H29.0923Z" fill="#E7AE29"/>
<path d="M30.5581 120.301L40.9525 130.675C42.1661 130.831 43.4399 130.915 44.7257 130.915C45.8793 130.915 47.0088 130.855 48.1023 130.723L34.8841 117.531C34.2111 117.819 33.5623 118.13 32.9614 118.478C31.9761 119.042 31.171 119.654 30.5581 120.289V120.301Z" fill="#EFC077"/>
<path d="M36.2422 117.015L49.7368 130.483C50.8303 130.291 51.8878 130.027 52.8852 129.715L39.3545 116.211C38.273 116.415 37.2275 116.691 36.2542 117.027L36.2422 117.015Z" fill="#EFC077"/>
<path d="M40.0511 149.996V154.913C40.0871 156.952 41.0004 158.882 42.5746 160.561C43.9445 162.025 45.819 163.308 48.0661 164.327C51.623 165.934 56.0932 166.906 60.9599 166.906C63.928 166.906 66.7399 166.546 69.2994 165.91C70.3569 165.646 71.3783 165.323 72.3276 164.963C72.8323 164.771 73.313 164.579 73.7816 164.363C76.0167 163.356 77.9033 162.084 79.2732 160.645C80.8955 158.942 81.8207 156.999 81.8568 154.937V150.02C81.7967 147.969 80.8714 146.05 79.2612 144.371C77.8793 142.92 76.0047 141.661 73.7696 140.641C73.301 140.425 72.8203 140.233 72.3156 140.041C71.3543 139.682 70.3449 139.37 69.2874 139.094C66.7279 138.446 63.916 138.099 60.9479 138.099C56.0812 138.099 51.611 139.058 48.0541 140.677C45.807 141.697 43.9324 142.98 42.5625 144.443C41.0004 146.11 40.0871 148.005 40.0391 150.032L40.0511 149.996Z" fill="#E0EDF8"/>
<path d="M30.6785 150.344V155.261C30.7146 157.299 31.6278 159.23 33.202 160.909C34.5719 162.372 36.4465 163.656 38.6936 164.675C42.2505 166.282 46.7207 167.254 51.5874 167.254C54.5555 167.254 57.3674 166.894 59.9269 166.246C60.9843 165.982 62.0058 165.659 62.9551 165.299C63.4598 165.107 63.9404 164.915 64.4091 164.699C66.6442 163.692 68.5308 162.42 69.9006 160.981C71.5229 159.278 72.4482 157.335 72.4842 155.273V150.356C72.4241 148.305 71.4989 146.386 69.8886 144.707C68.5067 143.256 66.6321 141.996 64.3971 140.977C63.9284 140.761 63.4477 140.569 62.943 140.377C61.9817 140.018 60.9723 139.706 59.9149 139.43C57.3553 138.782 54.5435 138.435 51.5754 138.435C46.7086 138.435 42.2385 139.394 38.6816 141.013C36.4345 142.032 34.5599 143.316 33.19 144.779C31.6278 146.446 30.7146 148.341 30.6665 150.368L30.6785 150.344Z" fill="#E0EDF8"/>
<path d="M46.8286 148.113V152.598C46.8647 154.469 47.6938 156.22 49.1358 157.755C50.3855 159.086 52.1039 160.262 54.1587 161.185C57.4032 162.66 61.4888 163.536 65.923 163.536C68.6267 163.536 71.2103 163.212 73.5415 162.624C74.5028 162.384 75.4401 162.096 76.3053 161.761C76.7619 161.593 77.2065 161.413 77.6271 161.209C79.6699 160.286 81.3883 159.134 82.65 157.815C84.1281 156.268 84.9813 154.493 85.0173 152.598V148.113C84.9692 146.242 84.1161 144.491 82.65 142.956C81.3883 141.637 79.6819 140.473 77.6271 139.55C77.1945 139.358 76.7619 139.178 76.3053 138.998C75.4281 138.674 74.5028 138.374 73.5415 138.135C71.2103 137.547 68.6387 137.223 65.923 137.223C61.4888 137.223 57.4032 138.099 54.1587 139.574C52.1039 140.509 50.3975 141.673 49.1358 143.004C47.7058 144.527 46.8767 146.254 46.8286 148.101V148.113Z" fill="#E7972F"/>
<path d="M77.627 139.55V161.209C79.6698 160.285 81.3881 159.134 82.6499 157.815V142.944C81.3881 141.624 79.6818 140.461 77.627 139.538V139.55Z" fill="#EFC077"/>
<path d="M49.1357 143.016V157.755C50.3855 159.086 52.1038 160.262 54.1587 161.185V139.574C52.1038 140.509 50.3975 141.672 49.1357 143.004V143.016Z" fill="#BD811E"/>
<path d="M73.5415 138.147V162.624C74.5028 162.384 75.4401 162.097 76.3053 161.761V138.998C75.4281 138.674 74.5028 138.375 73.5415 138.135V138.147Z" fill="#ECAF45"/>
<path d="M65.923 159.338C76.4685 159.338 85.0173 154.388 85.0173 148.281C85.0173 142.174 76.4685 137.223 65.923 137.223C55.3774 137.223 46.8286 142.174 46.8286 148.281C46.8286 154.388 55.3774 159.338 65.923 159.338Z" fill="#EAA644"/>
<path d="M65.923 157.611C70.7177 157.611 75.2119 156.544 78.5525 154.601C81.6047 152.838 83.287 150.595 83.287 148.281C83.287 145.966 81.6047 143.723 78.5525 141.96C75.2119 140.018 70.7177 138.95 65.923 138.95C61.1284 138.95 56.6342 140.018 53.2936 141.96C50.2414 143.723 48.5591 145.966 48.5591 148.281C48.5591 150.595 50.2414 152.838 53.2936 154.601C56.6342 156.544 61.1284 157.611 65.923 157.611Z" fill="#BD811E"/>
<path d="M65.9229 157.036C70.6214 157.036 75.0074 155.992 78.2639 154.109C81.1239 152.454 82.7101 150.379 82.7101 148.281C82.7101 146.182 81.1359 144.119 78.2639 142.452C75.0074 140.569 70.6214 139.526 65.9229 139.526C61.2244 139.526 56.8384 140.569 53.5819 142.452C50.7219 144.107 49.1357 146.182 49.1357 148.281C49.1357 150.379 50.7099 152.442 53.5819 154.109C56.8384 155.992 61.2244 157.036 65.9229 157.036Z" fill="#E7972F"/>
<path d="M50.2896 148.281C50.2896 149.948 51.6594 151.663 54.1589 153.114C56.3579 154.385 59.1217 155.261 62.1499 155.644C63.3636 155.8 64.6374 155.884 65.9231 155.884C67.0767 155.884 68.2063 155.824 69.2998 155.692C69.8525 155.632 70.4053 155.548 70.934 155.453C72.0276 155.261 73.085 154.997 74.0824 154.685C75.3922 154.265 76.6059 153.738 77.6874 153.114C80.1868 151.675 81.5567 149.96 81.5567 148.281C81.5567 146.602 80.1868 144.899 77.6874 143.448C74.5991 141.661 70.4173 140.677 65.9231 140.677C64.0606 140.677 62.2461 140.845 60.5517 141.169C59.4702 141.373 58.4248 141.649 57.4514 141.984C56.9828 142.14 56.5262 142.308 56.0936 142.5C55.4206 142.788 54.7717 143.1 54.1709 143.448C53.1856 144.011 52.3804 144.623 51.7676 145.259C50.8183 146.23 50.3016 147.261 50.3016 148.281H50.2896Z" fill="#E7AE29"/>
<path d="M51.7554 145.27L62.1497 155.644C63.3634 155.8 64.6371 155.884 65.9229 155.884C67.0765 155.884 68.2061 155.824 69.2996 155.692L56.0813 142.5C55.4084 142.788 54.7595 143.1 54.1587 143.447C53.1733 144.011 52.3682 144.623 51.7554 145.258V145.27Z" fill="#EFC077"/>
<path d="M57.4395 141.984L70.9341 155.452C72.0276 155.26 73.085 154.997 74.0824 154.685L60.5517 141.181C59.4703 141.385 58.4248 141.66 57.4515 141.996L57.4395 141.984Z" fill="#EFC077"/>
<path d="M50.4575 139.826V144.311C50.4936 146.182 51.3227 147.933 52.7647 149.468C54.0144 150.799 55.7328 151.974 57.7876 152.898C61.0321 154.373 65.1178 155.249 69.5519 155.249C72.2556 155.249 74.8392 154.925 77.1704 154.337C78.1317 154.097 79.069 153.809 79.9342 153.474C80.3908 153.306 80.8354 153.126 81.256 152.922C83.2988 151.998 85.0172 150.847 86.279 149.528C87.757 147.981 88.6102 146.206 88.6462 144.311V139.826C88.5981 137.955 87.745 136.204 86.279 134.669C85.0172 133.349 83.3109 132.186 81.256 131.263C80.8234 131.071 80.3908 130.891 79.9342 130.711C79.057 130.387 78.1317 130.087 77.1704 129.847C74.8392 129.26 72.2676 128.936 69.5519 128.936C65.1178 128.936 61.0321 129.812 57.7876 131.287C55.7328 132.222 54.0264 133.385 52.7647 134.717C51.3347 136.24 50.5056 137.967 50.4575 139.814V139.826Z" fill="#E7972F"/>
<path d="M81.2681 131.263V152.922C83.3109 151.998 85.0293 150.847 86.291 149.528V134.669C85.0293 133.349 83.3229 132.186 81.2681 131.263Z" fill="#EFC077"/>
<path d="M52.7769 134.729V149.468C54.0266 150.799 55.745 151.974 57.7998 152.898V131.287C55.745 132.222 54.0386 133.385 52.7769 134.717V134.729Z" fill="#BD811E"/>
<path d="M77.1704 129.86V154.337C78.1317 154.097 79.069 153.81 79.9342 153.474V130.711C79.057 130.387 78.1317 130.088 77.1704 129.848V129.86Z" fill="#ECAF45"/>
<path d="M69.5519 151.051C80.0974 151.051 88.6462 146.1 88.6462 139.994C88.6462 133.887 80.0974 128.936 69.5519 128.936C59.0064 128.936 50.4575 133.887 50.4575 139.994C50.4575 146.1 59.0064 151.051 69.5519 151.051Z" fill="#EAA644"/>
<path d="M69.552 149.324C74.3466 149.324 78.8408 148.257 82.1814 146.314C85.2336 144.551 86.9159 142.308 86.9159 139.994C86.9159 137.679 85.2336 135.436 82.1814 133.673C78.8408 131.73 74.3466 130.663 69.552 130.663C64.7573 130.663 60.2631 131.73 56.9225 133.673C53.8703 135.436 52.188 137.679 52.188 139.994C52.188 142.308 53.8703 144.551 56.9225 146.314C60.2631 148.257 64.7573 149.324 69.552 149.324Z" fill="#BD811E"/>
<path d="M69.5518 148.748C74.2503 148.748 78.6364 147.705 81.8928 145.822C84.7528 144.167 86.339 142.092 86.339 139.994C86.339 137.895 84.7648 135.832 81.8928 134.165C78.6364 132.282 74.2503 131.239 69.5518 131.239C64.8533 131.239 60.4673 132.282 57.2108 134.165C54.3508 135.82 52.7646 137.895 52.7646 139.994C52.7646 142.092 54.3388 144.155 57.2108 145.822C60.4673 147.705 64.8533 148.748 69.5518 148.748Z" fill="#E7972F"/>
<path d="M53.9302 139.994C53.9302 141.661 55.3001 143.376 57.7995 144.827C59.9985 146.098 62.7624 146.974 65.7905 147.357C67.0042 147.513 68.278 147.597 69.5637 147.597C70.7173 147.597 71.8469 147.537 72.9404 147.405C73.4932 147.345 74.0459 147.261 74.5747 147.165C75.6682 146.974 76.7256 146.71 77.723 146.398C79.0328 145.978 80.2465 145.45 81.328 144.827C83.8274 143.388 85.1973 141.673 85.1973 139.994C85.1973 138.315 83.8274 136.612 81.328 135.161C78.2397 133.374 74.058 132.39 69.5637 132.39C67.7012 132.39 65.8867 132.558 64.1923 132.882C63.1108 133.086 62.0654 133.362 61.0921 133.697C60.6234 133.853 60.1668 134.021 59.7342 134.213C59.0613 134.501 58.4124 134.813 57.8115 135.161C56.8262 135.724 56.0211 136.336 55.4082 136.971C54.4589 137.943 53.9422 138.974 53.9422 139.994H53.9302Z" fill="#E7AE29"/>
<path d="M55.3843 136.972L65.7786 147.345C66.9923 147.501 68.2661 147.585 69.5518 147.585C70.7054 147.585 71.835 147.525 72.9285 147.393L59.7102 134.201C59.0373 134.489 58.3884 134.801 57.7876 135.149C56.8022 135.712 55.9971 136.324 55.3843 136.96V136.972Z" fill="#EFC077"/>
<path d="M61.0801 133.697L74.5747 147.165C75.6682 146.973 76.7257 146.709 77.723 146.398L64.1924 132.894C63.1109 133.097 62.0654 133.373 61.0921 133.709L61.0801 133.697Z" fill="#EFC077"/>
<path d="M47.2852 131.418V135.904C47.3212 137.775 48.1504 139.526 49.5923 141.061C50.8421 142.392 52.5604 143.567 54.6153 144.491C57.8598 145.966 61.9454 146.841 66.3795 146.841C69.0832 146.841 71.6668 146.517 73.998 145.93C74.9714 145.69 75.8966 145.402 76.7618 145.066C77.2185 144.898 77.6631 144.719 78.0837 144.515C80.1265 143.591 81.8449 142.44 83.1066 141.121C84.5846 139.574 85.4378 137.799 85.4739 135.904V131.418C85.4258 129.547 84.5726 127.797 83.1066 126.261C81.8449 124.942 80.1385 123.779 78.0837 122.855C77.6511 122.664 77.2185 122.484 76.7618 122.304C75.8846 121.98 74.9594 121.68 73.998 121.44C71.6668 120.853 69.0953 120.529 66.3795 120.529C61.9454 120.529 57.8598 121.404 54.6153 122.879C52.5604 123.815 50.8541 124.978 49.5923 126.309C48.1624 127.833 47.3332 129.559 47.2852 131.406V131.418Z" fill="#E7972F"/>
<path d="M78.0957 122.855V144.515C80.1385 143.591 81.8569 142.44 83.1186 141.121V126.261C81.8569 124.942 80.1505 123.779 78.0957 122.855Z" fill="#EFC077"/>
<path d="M49.5923 126.321V141.061C50.842 142.392 52.5604 143.567 54.6152 144.491V122.879C52.5604 123.815 50.854 124.978 49.5923 126.309V126.321Z" fill="#BD811E"/>
<path d="M73.998 121.452V145.93C74.9714 145.69 75.8967 145.402 76.7619 145.067V122.304C75.8846 121.98 74.9594 121.68 73.998 121.44V121.452Z" fill="#ECAF45"/>
<path d="M66.3795 142.644C76.925 142.644 85.4739 137.693 85.4739 131.586C85.4739 125.479 76.925 120.529 66.3795 120.529C55.834 120.529 47.2852 125.479 47.2852 131.586C47.2852 137.693 55.834 142.644 66.3795 142.644Z" fill="#EAA644"/>
<path d="M66.3796 140.917C71.1742 140.917 75.6684 139.849 79.009 137.907C82.0612 136.144 83.7436 133.901 83.7436 131.586C83.7436 129.272 82.0612 127.029 79.009 125.266C75.6684 123.323 71.1742 122.256 66.3796 122.256C61.585 122.256 57.0908 123.323 53.7502 125.266C50.6979 127.029 49.0156 129.272 49.0156 131.586C49.0156 133.901 50.6979 136.144 53.7502 137.907C57.0908 139.849 61.585 140.917 66.3796 140.917Z" fill="#BD811E"/>
<path d="M66.3795 140.341C71.0779 140.341 75.464 139.298 78.7205 137.415C81.5804 135.76 83.1666 133.685 83.1666 131.586C83.1666 129.488 81.5924 127.425 78.7205 125.758C75.464 123.875 71.0779 122.832 66.3795 122.832C61.681 122.832 57.2949 123.875 54.0384 125.758C51.1785 127.413 49.5923 129.488 49.5923 131.586C49.5923 133.685 51.1665 135.748 54.0384 137.415C57.2949 139.298 61.681 140.341 66.3795 140.341Z" fill="#E7972F"/>
<path d="M50.7461 131.586C50.7461 133.253 52.116 134.968 54.6154 136.42C56.8145 137.691 59.5783 138.566 62.6065 138.95C63.8201 139.106 65.0939 139.19 66.3797 139.19C67.5333 139.19 68.6628 139.13 69.7563 138.998C70.3091 138.938 70.8619 138.854 71.3906 138.758C72.4841 138.566 73.5416 138.302 74.5389 137.991C75.8487 137.571 77.0624 137.043 78.1439 136.42C80.6434 134.98 82.0132 133.265 82.0132 131.586C82.0132 129.907 80.6434 128.204 78.1439 126.753C75.0556 124.966 70.8739 123.983 66.3797 123.983C64.5171 123.983 62.7026 124.151 61.0083 124.475C59.9268 124.679 58.8813 124.954 57.908 125.29C57.4393 125.446 56.9827 125.614 56.5501 125.806C55.8772 126.094 55.2283 126.405 54.6274 126.753C53.6421 127.317 52.837 127.929 52.2241 128.564C51.2748 129.536 50.7581 130.567 50.7581 131.586H50.7461Z" fill="#E7AE29"/>
<path d="M52.2119 128.576L62.6063 138.95C63.8199 139.106 65.0937 139.19 66.3795 139.19C67.5331 139.19 68.6626 139.13 69.7561 138.998L56.5379 125.806C55.865 126.093 55.2161 126.405 54.6152 126.753C53.6299 127.317 52.8248 127.928 52.2119 128.564V128.576Z" fill="#EFC077"/>
<path d="M57.9077 125.29L71.4023 138.758C72.4958 138.566 73.5533 138.302 74.5507 137.99L61.02 124.486C59.9385 124.69 58.8931 124.966 57.9197 125.302L57.9077 125.29Z" fill="#EFC077"/>
<path d="M23.5527 114.856V119.342C23.5888 121.213 24.4179 122.964 25.8599 124.499C27.1096 125.83 28.828 127.005 30.8829 127.929C34.1273 129.404 38.213 130.279 42.6471 130.279C45.3508 130.279 47.9344 129.955 50.2656 129.368C51.2269 129.128 52.1642 128.84 53.0294 128.504C53.486 128.336 53.9307 128.157 54.3512 127.953C56.3941 127.029 58.1124 125.878 59.3742 124.559C60.8522 123.012 61.7054 121.237 61.7414 119.342V114.856C61.6934 112.985 60.8402 111.235 59.3742 109.699C58.1124 108.38 56.4061 107.217 54.3512 106.293C53.9186 106.102 53.486 105.922 53.0294 105.742C52.1522 105.418 51.2269 105.118 50.2656 104.878C47.9344 104.291 45.3628 103.967 42.6471 103.967C38.213 103.967 34.1273 104.842 30.8829 106.317C28.828 107.253 27.1217 108.416 25.8599 109.747C24.4299 111.27 23.6008 112.997 23.5527 114.844V114.856Z" fill="#E7972F"/>
<path d="M54.3633 106.293V127.953C56.4061 127.029 58.1245 125.878 59.3862 124.559V109.699C58.1245 108.38 56.4181 107.217 54.3633 106.293Z" fill="#EFC077"/>
<path d="M25.8599 109.759V124.499C27.1096 125.83 28.828 127.005 30.8828 127.929V106.317C28.828 107.253 27.1216 108.416 25.8599 109.747V109.759Z" fill="#BD811E"/>
<path d="M50.2656 104.89V129.368C51.227 129.128 52.1642 128.84 53.0294 128.505V105.742C52.1522 105.418 51.227 105.118 50.2656 104.878V104.89Z" fill="#ECAF45"/>
<path d="M42.6471 126.082C53.1926 126.082 61.7414 121.131 61.7414 115.024C61.7414 108.917 53.1926 103.967 42.6471 103.967C32.1016 103.967 23.5527 108.917 23.5527 115.024C23.5527 121.131 32.1016 126.082 42.6471 126.082Z" fill="#EAA644"/>
<path d="M42.6472 124.355C47.4418 124.355 51.936 123.287 55.2766 121.345C58.3288 119.582 60.0111 117.339 60.0111 115.024C60.0111 112.71 58.3288 110.467 55.2766 108.704C51.936 106.761 47.4418 105.694 42.6472 105.694C37.8526 105.694 33.3583 106.761 30.0177 108.704C26.9655 110.467 25.2832 112.71 25.2832 115.024C25.2832 117.339 26.9655 119.582 30.0177 121.345C33.3583 123.287 37.8526 124.355 42.6472 124.355Z" fill="#BD811E"/>
<path d="M42.647 123.779C47.3455 123.779 51.7316 122.736 54.9881 120.853C57.848 119.198 59.4342 117.123 59.4342 115.024C59.4342 112.926 57.86 110.863 54.9881 109.196C51.7316 107.313 47.3455 106.27 42.647 106.27C37.9485 106.27 33.5625 107.313 30.306 109.196C27.4461 110.851 25.8599 112.926 25.8599 115.024C25.8599 117.123 27.434 119.186 30.306 120.853C33.5625 122.736 37.9485 123.779 42.647 123.779Z" fill="#E7972F"/>
<path d="M27.0137 115.024C27.0137 116.691 28.3836 118.406 30.883 119.858C33.082 121.129 35.8459 122.004 38.874 122.388C40.0877 122.544 41.3615 122.628 42.6473 122.628C43.8008 122.628 44.9304 122.568 46.0239 122.436C46.5767 122.376 47.1294 122.292 47.6582 122.196C48.7517 122.004 49.8091 121.74 50.8065 121.429C52.1163 121.009 53.33 120.481 54.4115 119.858C56.9109 118.418 58.2808 116.703 58.2808 115.024C58.2808 113.345 56.9109 111.642 54.4115 110.191C51.3232 108.404 47.1415 107.421 42.6473 107.421C40.7847 107.421 38.9702 107.589 37.2758 107.913C36.1943 108.116 35.1489 108.392 34.1756 108.728C33.7069 108.884 33.2503 109.052 32.8177 109.244C32.1448 109.532 31.4959 109.843 30.895 110.191C29.9097 110.755 29.1046 111.367 28.4917 112.002C27.5424 112.974 27.0257 114.005 27.0257 115.024H27.0137Z" fill="#E7AE29"/>
<path d="M28.4795 112.002L38.8738 122.376C40.0875 122.532 41.3613 122.616 42.647 122.616C43.8006 122.616 44.9302 122.556 46.0237 122.424L32.8055 109.232C32.1325 109.52 31.4836 109.832 30.8828 110.179C29.8974 110.743 29.0923 111.355 28.4795 111.99V112.002Z" fill="#EFC077"/>
<path d="M34.1753 108.728L47.6699 122.196C48.7634 122.004 49.8209 121.74 50.8183 121.428L37.2876 107.924C36.2061 108.128 35.1607 108.404 34.1873 108.74L34.1753 108.728Z" fill="#EFC077"/>
<path d="M0 142.944V147.861C0.0360498 149.9 0.94931 151.831 2.52348 153.51C3.89337 154.973 5.76796 156.256 8.01506 157.275C11.572 158.882 16.0421 159.854 20.9089 159.854C23.877 159.854 26.6888 159.494 29.2484 158.858C30.3058 158.595 31.3272 158.271 32.2765 157.911C32.7812 157.719 33.2619 157.527 33.7306 157.311C35.9656 156.304 37.8522 155.033 39.2221 153.594C40.8444 151.891 41.7696 149.948 41.8057 147.885V142.968C41.7456 140.917 40.8203 138.998 39.2101 137.319C37.8282 135.868 35.9536 134.609 33.7185 133.589C33.2499 133.374 32.7692 133.182 32.2645 132.99C31.3032 132.63 30.2938 132.318 29.2364 132.042C26.6768 131.395 23.8649 131.047 20.8968 131.047C16.0301 131.047 11.56 132.006 8.00305 133.625C5.75594 134.645 3.88136 135.928 2.51147 137.391C0.961327 139.034 0.0600829 140.929 0 142.944Z" fill="#E0EDF8"/>
<path d="M5.02295 141.648V146.134C5.059 148.005 5.88814 149.756 7.33013 151.291C8.57986 152.622 10.2982 153.797 12.3531 154.721C15.5975 156.196 19.6832 157.071 24.1173 157.071C26.821 157.071 29.4046 156.747 31.7358 156.16C32.6971 155.92 33.6344 155.632 34.4996 155.296C34.9563 155.128 35.4009 154.949 35.8215 154.745C37.8643 153.821 39.5826 152.67 40.8444 151.351C42.3224 149.804 43.1756 148.029 43.2117 146.134V141.648C43.1636 139.777 42.3104 138.027 40.8444 136.491C39.5826 135.172 37.8763 134.009 35.8215 133.085C35.3889 132.894 34.9563 132.714 34.4996 132.534C33.6224 132.21 32.6971 131.91 31.7358 131.67C29.4046 131.083 26.833 130.759 24.1173 130.759C19.6832 130.759 15.5975 131.634 12.3531 133.109C10.2982 134.045 8.59187 135.208 7.33013 136.539C5.90016 138.062 5.07102 139.789 5.02295 141.636V141.648Z" fill="#E7972F"/>
<path d="M35.8335 133.085V154.745C37.8763 153.821 39.5947 152.67 40.8564 151.351V136.491C39.5947 135.172 37.8883 134.009 35.8335 133.085Z" fill="#EFC077"/>
<path d="M7.33008 136.551V151.291C8.5798 152.622 10.2982 153.797 12.353 154.721V133.109C10.2982 134.045 8.59182 135.208 7.33008 136.539V136.551Z" fill="#BD811E"/>
<path d="M31.7358 131.682V156.16C32.6972 155.92 33.6345 155.632 34.4997 155.296V132.534C33.6224 132.21 32.6972 131.91 31.7358 131.67V131.682Z" fill="#ECAF45"/>
<path d="M24.1173 152.874C34.6628 152.874 43.2117 147.923 43.2117 141.816C43.2117 135.709 34.6628 130.759 24.1173 130.759C13.5718 130.759 5.02295 135.709 5.02295 141.816C5.02295 147.923 13.5718 152.874 24.1173 152.874Z" fill="#EAA644"/>
<path d="M24.1174 151.147C28.912 151.147 33.4062 150.079 36.7468 148.148C39.799 146.385 41.4813 144.143 41.4813 141.828C41.4813 139.513 39.799 137.271 36.7468 135.508C33.4062 133.565 28.912 132.498 24.1174 132.498C19.3228 132.498 14.8286 133.565 11.488 135.508C8.43574 137.271 6.75342 139.513 6.75342 141.828C6.75342 144.143 8.43574 146.385 11.488 148.148C14.8286 150.091 19.3228 151.147 24.1174 151.147Z" fill="#BD811E"/>
<path d="M24.1172 150.571C28.8157 150.571 33.2018 149.528 36.4583 147.645C39.3182 145.99 40.9044 143.915 40.9044 141.816C40.9044 139.718 39.3302 137.655 36.4583 135.988C33.2018 134.105 28.8157 133.062 24.1172 133.062C19.4188 133.062 15.0327 134.105 11.7762 135.988C8.91627 137.643 7.33008 139.718 7.33008 141.816C7.33008 143.915 8.90425 145.978 11.7762 147.645C15.0327 149.528 19.4188 150.571 24.1172 150.571Z" fill="#E7972F"/>
<path d="M8.48389 141.816C8.48389 143.483 9.85378 145.198 12.3532 146.65C14.5523 147.921 17.3161 148.796 20.3443 149.18C21.5579 149.336 22.8317 149.42 24.1175 149.42C25.2711 149.42 26.4006 149.36 27.4941 149.228C28.0469 149.168 28.5996 149.084 29.1284 148.988C30.2219 148.796 31.2793 148.532 32.2767 148.221C33.5865 147.801 34.8002 147.273 35.8817 146.65C38.3811 145.21 39.751 143.495 39.751 141.816C39.751 140.137 38.3811 138.434 35.8817 136.983C32.7934 135.196 28.6117 134.213 24.1175 134.213C22.2549 134.213 20.4404 134.381 18.746 134.705C17.6646 134.908 16.6191 135.184 15.6458 135.52C15.1771 135.676 14.7205 135.844 14.2879 136.036C13.615 136.324 12.9661 136.635 12.3652 136.983C11.3799 137.547 10.5748 138.159 9.96193 138.794C9.01262 139.766 8.4959 140.797 8.4959 141.816H8.48389Z" fill="#E7AE29"/>
<path d="M9.94971 138.806L20.3441 149.18C21.5577 149.336 22.8315 149.42 24.1173 149.42C25.2709 149.42 26.4004 149.36 27.4939 149.228L14.2757 136.036C13.6027 136.323 12.9539 136.635 12.353 136.983C11.3677 137.547 10.5626 138.158 9.94971 138.794V138.806Z" fill="#EFC077"/>
<path d="M15.6455 135.52L29.1401 148.988C30.2336 148.796 31.2911 148.532 32.2885 148.22L18.7578 134.716C17.6763 134.92 16.6309 135.196 15.6575 135.532L15.6455 135.52Z" fill="#EFC077"/>
<path d="M272.416 162.96V167.877C272.452 169.916 273.366 171.847 274.94 173.526C276.31 174.989 278.184 176.272 280.431 177.292C283.988 178.899 288.458 179.87 293.325 179.87C296.293 179.87 299.105 179.511 301.665 178.863C302.722 178.599 303.744 178.275 304.693 177.915C305.198 177.724 305.678 177.532 306.147 177.316C308.382 176.308 310.269 175.037 311.638 173.598C313.261 171.895 314.186 169.952 314.222 167.889V162.972C314.162 160.921 313.237 159.003 311.626 157.324C310.244 155.872 308.37 154.613 306.135 153.594C305.666 153.378 305.186 153.186 304.681 152.994C303.72 152.634 302.71 152.323 301.653 152.047C299.093 151.399 296.281 151.051 293.313 151.051C288.446 151.051 283.976 152.011 280.419 153.63C278.172 154.649 276.298 155.932 274.928 157.396C273.366 159.063 272.452 160.957 272.404 162.984L272.416 162.96Z" fill="#E0EDF8"/>
<path d="M279.182 161.317V165.803C279.218 167.674 280.047 169.425 281.489 170.96C282.739 172.291 284.457 173.466 286.512 174.39C289.756 175.865 293.842 176.74 298.276 176.74C300.98 176.74 303.563 176.416 305.895 175.829C306.868 175.589 307.793 175.301 308.658 174.965C309.115 174.797 309.56 174.617 309.98 174.414C312.023 173.49 313.741 172.339 315.003 171.02C316.481 169.473 317.334 167.698 317.37 165.803V161.317C317.322 159.446 316.469 157.695 315.003 156.16C313.741 154.841 312.035 153.678 309.98 152.754C309.548 152.562 309.115 152.383 308.658 152.203C307.781 151.879 306.856 151.579 305.895 151.339C303.563 150.752 300.992 150.428 298.276 150.428C293.842 150.428 289.756 151.303 286.512 152.778C284.457 153.714 282.751 154.877 281.489 156.208C280.059 157.731 279.23 159.458 279.182 161.305V161.317Z" fill="#E7972F"/>
<path d="M309.98 152.754V174.414C312.023 173.49 313.741 172.339 315.003 171.02V156.16C313.741 154.841 312.035 153.678 309.98 152.754Z" fill="#EFC077"/>
<path d="M281.489 156.22V170.96C282.738 172.291 284.457 173.466 286.512 174.39V152.778C284.457 153.714 282.751 154.877 281.489 156.208V156.22Z" fill="#BD811E"/>
<path d="M305.895 151.351V175.829C306.868 175.589 307.793 175.301 308.658 174.965V152.203C307.781 151.879 306.856 151.579 305.895 151.339V151.351Z" fill="#ECAF45"/>
<path d="M298.276 172.543C308.822 172.543 317.37 167.592 317.37 161.485C317.37 155.378 308.822 150.428 298.276 150.428C287.73 150.428 279.182 155.378 279.182 161.485C279.182 167.592 287.73 172.543 298.276 172.543Z" fill="#EAA644"/>
<path d="M298.276 170.816C303.071 170.816 307.565 169.748 310.906 167.805C313.958 166.042 315.64 163.8 315.64 161.485C315.64 159.17 313.958 156.928 310.906 155.165C307.565 153.222 303.071 152.167 298.276 152.167C293.481 152.167 288.987 153.234 285.647 155.165C282.594 156.928 280.912 159.17 280.912 161.485C280.912 163.8 282.594 166.042 285.647 167.805C288.999 169.748 293.481 170.816 298.276 170.816Z" fill="#BD811E"/>
<path d="M298.276 170.24C302.974 170.24 307.36 169.197 310.617 167.314C313.477 165.659 315.063 163.584 315.063 161.485C315.063 159.387 313.489 157.324 310.617 155.657C307.36 153.774 302.974 152.73 298.276 152.73C293.577 152.73 289.191 153.774 285.935 155.657C283.075 157.312 281.489 159.387 281.489 161.485C281.489 163.584 283.063 165.647 285.935 167.314C289.191 169.197 293.577 170.24 298.276 170.24Z" fill="#E7972F"/>
<path d="M282.643 161.485C282.643 163.152 284.012 164.867 286.512 166.319C288.711 167.59 291.475 168.465 294.503 168.849C295.717 169.005 296.99 169.089 298.276 169.089C299.43 169.089 300.559 169.029 301.653 168.897C302.206 168.837 302.758 168.753 303.287 168.657C304.381 168.465 305.438 168.201 306.435 167.89C307.745 167.47 308.959 166.942 310.04 166.319C312.54 164.879 313.91 163.164 313.91 161.485C313.91 159.806 312.54 158.103 310.04 156.652C306.952 154.865 302.77 153.882 298.276 153.882C296.414 153.882 294.599 154.05 292.905 154.374C291.823 154.577 290.778 154.853 289.804 155.189C289.336 155.345 288.879 155.513 288.447 155.705C287.774 155.993 287.125 156.304 286.524 156.652C285.539 157.216 284.733 157.828 284.121 158.463C283.171 159.435 282.655 160.466 282.655 161.485H282.643Z" fill="#E7AE29"/>
<path d="M284.108 158.475L294.503 168.849C295.716 169.005 296.99 169.089 298.276 169.089C299.43 169.089 300.559 169.029 301.653 168.897L288.434 155.705C287.761 155.992 287.113 156.304 286.512 156.652C285.526 157.216 284.721 157.827 284.108 158.463V158.475Z" fill="#EFC077"/>
<path d="M289.792 155.189L303.287 168.657C304.381 168.465 305.438 168.201 306.435 167.889L292.905 154.385C291.823 154.589 290.778 154.865 289.804 155.201L289.792 155.189Z" fill="#EFC077"/>
<path d="M293.601 188.169V193.087C293.637 195.125 294.551 197.056 296.125 198.735C297.495 200.198 299.369 201.482 301.616 202.501C305.173 204.108 309.644 205.079 314.51 205.079C317.478 205.079 320.29 204.72 322.85 204.084C323.907 203.82 324.929 203.496 325.878 203.137C326.383 202.945 326.863 202.753 327.332 202.537C329.567 201.53 331.454 200.258 332.823 198.819C334.446 197.116 335.371 195.173 335.407 193.111V188.193C335.347 186.143 334.422 184.224 332.811 182.545C331.43 181.094 329.555 179.834 327.32 178.815C326.851 178.599 326.371 178.407 325.866 178.215C324.905 177.856 323.895 177.544 322.838 177.268C320.278 176.62 317.466 176.272 314.498 176.272C309.631 176.272 305.161 177.232 301.604 178.851C299.357 179.87 297.483 181.154 296.113 182.617C294.551 184.284 293.637 186.179 293.589 188.205L293.601 188.169Z" fill="#E0EDF8"/>
<path d="M284.228 188.517V193.434C284.264 195.473 285.178 197.404 286.752 199.083C288.122 200.546 289.996 201.829 292.243 202.849C295.8 204.456 300.27 205.427 305.137 205.427C308.105 205.427 310.917 205.067 313.477 204.432C314.534 204.168 315.556 203.844 316.505 203.484C317.01 203.292 317.49 203.101 317.959 202.885C320.194 201.877 322.081 200.606 323.45 199.167C325.073 197.464 325.998 195.521 326.034 193.458V188.541C325.974 186.49 325.049 184.571 323.438 182.892C322.057 181.441 320.182 180.182 317.947 179.163C317.478 178.947 316.998 178.755 316.493 178.563C315.532 178.203 314.522 177.891 313.465 177.616C310.905 176.968 308.093 176.62 305.125 176.62C300.258 176.62 295.788 177.58 292.231 179.199C289.984 180.218 288.11 181.501 286.74 182.964C285.178 184.631 284.264 186.526 284.216 188.553L284.228 188.517Z" fill="#E0EDF8"/>
<path d="M300.379 186.287V190.772C300.415 192.643 301.244 194.394 302.686 195.929C303.936 197.26 305.654 198.435 307.709 199.359C310.954 200.834 315.039 201.709 319.473 201.709C322.177 201.709 324.761 201.386 327.092 200.798C328.053 200.558 328.99 200.27 329.856 199.935C330.312 199.767 330.757 199.587 331.177 199.383C333.22 198.459 334.939 197.308 336.2 195.989C337.678 194.442 338.532 192.667 338.568 190.772V186.287C338.52 184.416 337.666 182.665 336.2 181.13C334.939 179.81 333.232 178.647 331.177 177.724C330.745 177.532 330.312 177.352 329.856 177.172C328.978 176.848 328.053 176.548 327.092 176.308C324.761 175.721 322.189 175.397 319.473 175.397C315.039 175.397 310.954 176.272 307.709 177.748C305.654 178.683 303.948 179.846 302.686 181.178C301.256 182.701 300.427 184.428 300.379 186.275V186.287Z" fill="#E7972F"/>
<path d="M331.177 177.724V199.383C333.22 198.459 334.938 197.308 336.2 195.989V181.13C334.938 179.81 333.232 178.647 331.177 177.724Z" fill="#EFC077"/>
<path d="M302.686 181.19V195.929C303.936 197.26 305.654 198.435 307.709 199.359V177.748C305.654 178.683 303.948 179.846 302.686 181.178V181.19Z" fill="#BD811E"/>
<path d="M327.08 176.321V200.798C328.041 200.558 328.978 200.27 329.843 199.935V177.172C328.966 176.848 328.041 176.548 327.08 176.309V176.321Z" fill="#ECAF45"/>
<path d="M319.473 197.512C330.019 197.512 338.568 192.561 338.568 186.454C338.568 180.348 330.019 175.397 319.473 175.397C308.928 175.397 300.379 180.348 300.379 186.454C300.379 192.561 308.928 197.512 319.473 197.512Z" fill="#EAA644"/>
<path d="M319.473 195.785C324.268 195.785 328.762 194.717 332.103 192.787C335.155 191.024 336.837 188.781 336.837 186.466C336.837 184.152 335.155 181.909 332.103 180.146C328.762 178.203 324.268 177.136 319.473 177.136C314.679 177.136 310.185 178.203 306.844 180.146C303.792 181.909 302.109 184.152 302.109 186.466C302.109 188.781 303.792 191.024 306.844 192.787C310.185 194.729 314.679 195.785 319.473 195.785Z" fill="#BD811E"/>
<path d="M319.473 195.209C324.172 195.209 328.558 194.166 331.814 192.283C334.674 190.628 336.26 188.553 336.26 186.455C336.26 184.356 334.686 182.293 331.814 180.626C328.558 178.743 324.172 177.7 319.473 177.7C314.775 177.7 310.389 178.743 307.132 180.626C304.272 182.281 302.686 184.356 302.686 186.455C302.686 188.553 304.26 190.616 307.132 192.283C310.389 194.166 314.775 195.209 319.473 195.209Z" fill="#E7972F"/>
<path d="M303.84 186.455C303.84 188.122 305.21 189.837 307.709 191.288C309.908 192.559 312.672 193.434 315.7 193.818C316.914 193.974 318.188 194.058 319.473 194.058C320.627 194.058 321.757 193.998 322.85 193.866C323.403 193.806 323.956 193.722 324.484 193.626C325.578 193.434 326.635 193.171 327.633 192.859C328.942 192.439 330.156 191.911 331.238 191.288C333.737 189.849 335.107 188.134 335.107 186.455C335.107 184.776 333.737 183.073 331.238 181.621C328.149 179.834 323.968 178.851 319.473 178.851C317.611 178.851 315.796 179.019 314.102 179.343C313.021 179.547 311.975 179.822 311.002 180.158C310.533 180.314 310.076 180.482 309.644 180.674C308.971 180.962 308.322 181.274 307.721 181.621C306.736 182.185 305.931 182.797 305.318 183.432C304.369 184.404 303.852 185.435 303.852 186.455H303.84Z" fill="#E7AE29"/>
<path d="M305.293 183.444L315.688 193.818C316.901 193.974 318.175 194.058 319.461 194.058C320.615 194.058 321.744 193.998 322.838 193.866L309.619 180.674C308.947 180.962 308.298 181.273 307.697 181.621C306.711 182.185 305.906 182.797 305.293 183.432V183.444Z" fill="#EFC077"/>
<path d="M310.99 180.158L324.484 193.626C325.578 193.434 326.635 193.17 327.633 192.859L314.102 179.354C313.021 179.558 311.975 179.834 311.002 180.17L310.99 180.158Z" fill="#EFC077"/>
<path d="M304.008 177.999V182.485C304.044 184.356 304.873 186.107 306.315 187.642C307.565 188.973 309.283 190.148 311.338 191.072C314.582 192.547 318.668 193.422 323.102 193.422C325.806 193.422 328.389 193.099 330.721 192.511C331.682 192.271 332.619 191.983 333.484 191.647C333.941 191.48 334.386 191.3 334.806 191.096C336.849 190.172 338.567 189.021 339.829 187.702C341.307 186.155 342.16 184.38 342.196 182.485V177.999C342.148 176.129 341.295 174.378 339.829 172.842C338.567 171.523 336.861 170.36 334.806 169.436C334.374 169.245 333.941 169.065 333.484 168.885C332.607 168.561 331.682 168.261 330.721 168.021C328.389 167.434 325.818 167.11 323.102 167.11C318.668 167.11 314.582 167.985 311.338 169.46C309.283 170.396 307.577 171.559 306.315 172.89C304.885 174.414 304.056 176.141 304.008 177.987V177.999Z" fill="#E7972F"/>
<path d="M334.818 169.437V191.096C336.861 190.172 338.58 189.021 339.841 187.702V172.843C338.58 171.523 336.873 170.36 334.818 169.437Z" fill="#EFC077"/>
<path d="M306.315 172.902V187.642C307.565 188.973 309.283 190.148 311.338 191.072V169.46C309.283 170.396 307.577 171.559 306.315 172.89V172.902Z" fill="#BD811E"/>
<path d="M330.721 168.033V192.511C331.682 192.271 332.619 191.983 333.485 191.648V168.885C332.607 168.561 331.682 168.261 330.721 168.021V168.033Z" fill="#ECAF45"/>
<path d="M323.102 189.225C333.648 189.225 342.196 184.274 342.196 178.167C342.196 172.06 333.648 167.11 323.102 167.11C312.557 167.11 304.008 172.06 304.008 178.167C304.008 184.274 312.557 189.225 323.102 189.225Z" fill="#EAA644"/>
<path d="M323.102 187.498C327.897 187.498 332.391 186.431 335.732 184.488C338.784 182.725 340.466 180.482 340.466 178.167C340.466 175.853 338.784 173.61 335.732 171.847C332.391 169.904 327.897 168.837 323.102 168.837C318.308 168.837 313.813 169.904 310.473 171.847C307.421 173.61 305.738 175.853 305.738 178.167C305.738 180.482 307.421 182.725 310.473 184.488C313.813 186.431 318.308 187.498 323.102 187.498Z" fill="#BD811E"/>
<path d="M323.102 186.922C327.801 186.922 332.187 185.879 335.443 183.996C338.303 182.341 339.889 180.266 339.889 178.167C339.889 176.069 338.315 174.006 335.443 172.339C332.187 170.456 327.801 169.413 323.102 169.413C318.404 169.413 314.018 170.456 310.761 172.339C307.901 173.994 306.315 176.069 306.315 178.167C306.315 180.266 307.889 182.329 310.761 183.996C314.018 185.879 318.404 186.922 323.102 186.922Z" fill="#E7972F"/>
<path d="M307.469 178.167C307.469 179.834 308.839 181.549 311.338 183.001C313.537 184.272 316.301 185.147 319.329 185.531C320.543 185.687 321.817 185.771 323.102 185.771C324.256 185.771 325.385 185.711 326.479 185.579C327.032 185.519 327.585 185.435 328.113 185.339C329.207 185.147 330.264 184.884 331.262 184.572C332.571 184.152 333.785 183.624 334.867 183.001C337.366 181.561 338.736 179.846 338.736 178.167C338.736 176.488 337.366 174.785 334.867 173.334C331.778 171.547 327.597 170.564 323.102 170.564C321.24 170.564 319.425 170.732 317.731 171.056C316.649 171.26 315.604 171.535 314.631 171.871C314.162 172.027 313.705 172.195 313.273 172.387C312.6 172.675 311.951 172.987 311.35 173.334C310.365 173.898 309.56 174.51 308.947 175.145C307.997 176.117 307.481 177.148 307.481 178.167H307.469Z" fill="#E7AE29"/>
<path d="M308.935 175.145L319.329 185.519C320.543 185.675 321.816 185.759 323.102 185.759C324.256 185.759 325.385 185.699 326.479 185.567L313.261 172.375C312.588 172.663 311.939 172.975 311.338 173.322C310.353 173.886 309.547 174.498 308.935 175.133V175.145Z" fill="#EFC077"/>
<path d="M314.619 171.871L328.113 185.339C329.207 185.147 330.264 184.883 331.262 184.571L317.731 171.067C316.649 171.271 315.604 171.547 314.631 171.883L314.619 171.871Z" fill="#EFC077"/>
<path d="M300.835 169.592V174.078C300.871 175.948 301.701 177.699 303.143 179.235C304.392 180.566 306.111 181.741 308.166 182.665C311.41 184.14 315.496 185.015 319.93 185.015C322.634 185.015 325.217 184.691 327.548 184.104C328.51 183.864 329.447 183.576 330.312 183.24C330.769 183.072 331.213 182.892 331.634 182.689C333.677 181.765 335.395 180.614 336.657 179.295C338.135 177.747 338.988 175.972 339.024 174.078V169.592C338.976 167.721 338.123 165.97 336.657 164.435C335.395 163.116 333.689 161.953 331.634 161.029C331.201 160.837 330.769 160.657 330.312 160.478C329.435 160.154 328.51 159.854 327.548 159.614C325.217 159.026 322.646 158.703 319.93 158.703C315.496 158.703 311.41 159.578 308.166 161.053C306.111 161.989 304.404 163.152 303.143 164.483C301.713 166.006 300.884 167.733 300.835 169.58V169.592Z" fill="#E7972F"/>
<path d="M331.646 161.029V182.689C333.689 181.765 335.407 180.614 336.669 179.295V164.435C335.407 163.116 333.701 161.953 331.646 161.029Z" fill="#EFC077"/>
<path d="M303.143 164.495V179.235C304.392 180.566 306.111 181.741 308.166 182.664V161.053C306.111 161.989 304.404 163.152 303.143 164.483V164.495Z" fill="#BD811E"/>
<path d="M327.548 159.626V184.104C328.51 183.864 329.447 183.576 330.312 183.24V160.478C329.435 160.154 328.51 159.854 327.548 159.614V159.626Z" fill="#ECAF45"/>
<path d="M319.93 180.818C330.475 180.818 339.024 175.867 339.024 169.76C339.024 163.653 330.475 158.703 319.93 158.703C309.384 158.703 300.835 163.653 300.835 169.76C300.835 175.867 309.384 180.818 319.93 180.818Z" fill="#EAA644"/>
<path d="M319.93 179.091C324.724 179.091 329.219 178.023 332.559 176.08C335.612 174.318 337.294 172.075 337.294 169.76C337.294 167.446 335.612 165.203 332.559 163.44C329.219 161.497 324.724 160.43 319.93 160.43C315.135 160.43 310.641 161.497 307.3 163.44C304.248 165.203 302.566 167.446 302.566 169.76C302.566 172.075 304.248 174.318 307.3 176.08C310.641 178.023 315.135 179.091 319.93 179.091Z" fill="#BD811E"/>
<path d="M319.93 178.515C324.628 178.515 329.014 177.472 332.271 175.589C335.131 173.934 336.717 171.859 336.717 169.76C336.717 167.661 335.143 165.599 332.271 163.932C329.014 162.049 324.628 161.005 319.93 161.005C315.231 161.005 310.845 162.049 307.589 163.932C304.729 165.587 303.143 167.661 303.143 169.76C303.143 171.859 304.717 173.922 307.589 175.589C310.845 177.472 315.231 178.515 319.93 178.515Z" fill="#E7972F"/>
<path d="M304.296 169.76C304.296 171.427 305.666 173.142 308.166 174.593C310.365 175.865 313.129 176.74 316.157 177.124C317.37 177.28 318.644 177.364 319.93 177.364C321.084 177.364 322.213 177.304 323.307 177.172C323.859 177.112 324.412 177.028 324.941 176.932C326.034 176.74 327.092 176.476 328.089 176.164C329.399 175.745 330.613 175.217 331.694 174.593C334.194 173.154 335.564 171.439 335.564 169.76C335.564 168.081 334.194 166.378 331.694 164.927C328.606 163.14 324.424 162.157 319.93 162.157C318.067 162.157 316.253 162.325 314.559 162.648C313.477 162.852 312.432 163.128 311.458 163.464C310.99 163.62 310.533 163.788 310.1 163.98C309.427 164.267 308.779 164.579 308.178 164.927C307.192 165.491 306.387 166.102 305.774 166.738C304.825 167.709 304.308 168.741 304.308 169.76H304.296Z" fill="#E7AE29"/>
<path d="M305.762 166.75L316.157 177.124C317.37 177.28 318.644 177.364 319.93 177.364C321.083 177.364 322.213 177.304 323.306 177.172L310.088 163.979C309.415 164.267 308.766 164.579 308.166 164.927C307.18 165.491 306.375 166.102 305.762 166.738V166.75Z" fill="#EFC077"/>
<path d="M311.446 163.464L324.941 176.932C326.034 176.74 327.092 176.476 328.089 176.164L314.559 162.66C313.477 162.864 312.432 163.14 311.458 163.476L311.446 163.464Z" fill="#EFC077"/>
<path d="M277.103 153.03V157.516C277.139 159.386 277.968 161.137 279.41 162.673C280.659 164.004 282.378 165.179 284.433 166.103C287.677 167.578 291.763 168.453 296.197 168.453C298.901 168.453 301.484 168.129 303.815 167.542C304.789 167.302 305.714 167.014 306.579 166.678C307.036 166.51 307.48 166.33 307.901 166.126C309.944 165.203 311.662 164.052 312.924 162.732C314.402 161.185 315.255 159.41 315.291 157.516V153.03C315.243 151.159 314.39 149.408 312.924 147.873C311.662 146.554 309.956 145.391 307.901 144.467C307.468 144.275 307.036 144.095 306.579 143.916C305.702 143.592 304.777 143.292 303.815 143.052C301.484 142.464 298.913 142.141 296.197 142.141C291.763 142.141 287.677 143.016 284.433 144.491C282.378 145.427 280.671 146.59 279.41 147.921C277.98 149.444 277.151 151.171 277.103 153.018V153.03Z" fill="#E7972F"/>
<path d="M307.913 144.467V166.127C309.956 165.203 311.674 164.052 312.936 162.733V147.873C311.674 146.554 309.968 145.391 307.913 144.467Z" fill="#EFC077"/>
<path d="M279.41 147.933V162.672C280.659 164.004 282.378 165.179 284.433 166.102V144.491C282.378 145.427 280.671 146.59 279.41 147.921V147.933Z" fill="#BD811E"/>
<path d="M303.815 143.064V167.542C304.789 167.302 305.714 167.014 306.579 166.678V143.916C305.702 143.592 304.777 143.292 303.815 143.052V143.064Z" fill="#ECAF45"/>
<path d="M296.197 164.256C306.742 164.256 315.291 159.305 315.291 153.198C315.291 147.091 306.742 142.141 296.197 142.141C285.651 142.141 277.103 147.091 277.103 153.198C277.103 159.305 285.651 164.256 296.197 164.256Z" fill="#EAA644"/>
<path d="M296.197 162.528C300.992 162.528 305.486 161.461 308.826 159.53C311.879 157.767 313.561 155.525 313.561 153.21C313.561 150.895 311.879 148.653 308.826 146.89C305.486 144.947 300.992 143.879 296.197 143.879C291.402 143.879 286.908 144.947 283.568 146.89C280.515 148.653 278.833 150.895 278.833 153.21C278.833 155.525 280.515 157.767 283.568 159.53C286.908 161.473 291.402 162.528 296.197 162.528Z" fill="#BD811E"/>
<path d="M296.197 161.953C300.895 161.953 305.281 160.91 308.538 159.027C311.398 157.372 312.984 155.297 312.984 153.198C312.984 151.099 311.41 149.037 308.538 147.37C305.281 145.487 300.895 144.443 296.197 144.443C291.498 144.443 287.112 145.487 283.856 147.37C280.996 149.025 279.41 151.099 279.41 153.198C279.41 155.297 280.984 157.36 283.856 159.027C287.112 160.91 291.498 161.953 296.197 161.953Z" fill="#E7972F"/>
<path d="M280.563 153.198C280.563 154.865 281.933 156.58 284.433 158.031C286.632 159.303 289.396 160.178 292.424 160.562C293.638 160.718 294.911 160.802 296.197 160.802C297.351 160.802 298.48 160.742 299.574 160.61C300.126 160.55 300.679 160.466 301.208 160.37C302.301 160.178 303.359 159.914 304.356 159.602C305.666 159.183 306.88 158.655 307.961 158.031C310.461 156.592 311.831 154.877 311.831 153.198C311.831 151.519 310.461 149.816 307.961 148.365C304.873 146.578 300.691 145.595 296.197 145.595C294.334 145.595 292.52 145.763 290.826 146.086C289.744 146.29 288.699 146.566 287.725 146.902C287.257 147.058 286.8 147.226 286.367 147.418C285.695 147.705 285.046 148.017 284.445 148.365C283.459 148.929 282.654 149.54 282.042 150.176C281.092 151.147 280.576 152.179 280.576 153.198H280.563Z" fill="#E7AE29"/>
<path d="M282.029 150.176L292.424 160.55C293.637 160.706 294.911 160.79 296.197 160.79C297.35 160.79 298.48 160.73 299.574 160.598L286.355 147.406C285.682 147.694 285.033 148.005 284.433 148.353C283.447 148.917 282.642 149.529 282.029 150.164V150.176Z" fill="#EFC077"/>
<path d="M287.713 146.902L301.208 160.37C302.302 160.178 303.359 159.914 304.356 159.602L290.826 146.098C289.744 146.302 288.699 146.578 287.725 146.914L287.713 146.902Z" fill="#EFC077"/>
<path d="M253.55 181.118V186.035C253.586 188.074 254.499 190.004 256.074 191.683C257.443 193.147 259.318 194.43 261.565 195.449C265.122 197.056 269.592 198.028 274.459 198.028C277.427 198.028 280.239 197.668 282.798 197.032C283.856 196.768 284.877 196.445 285.827 196.085C286.331 195.893 286.812 195.701 287.281 195.485C289.516 194.478 291.402 193.207 292.772 191.767C294.394 190.064 295.32 188.122 295.356 186.059V181.142C295.296 179.091 294.37 177.172 292.76 175.493C291.378 174.042 289.504 172.783 287.269 171.763C286.8 171.547 286.319 171.355 285.815 171.164C284.853 170.804 283.844 170.492 282.786 170.216C280.227 169.568 277.415 169.221 274.447 169.221C269.58 169.221 265.11 170.18 261.553 171.799C259.306 172.819 257.431 174.102 256.062 175.565C254.499 177.232 253.586 179.127 253.538 181.154L253.55 181.118Z" fill="#E0EDF8"/>
<path d="M300.835 160.178V164.663C300.871 166.534 301.701 168.285 303.143 169.82C304.392 171.151 306.111 172.327 308.166 173.25C311.41 174.725 315.496 175.601 319.93 175.601C322.634 175.601 325.217 175.277 327.548 174.689C328.51 174.449 329.447 174.162 330.312 173.826C330.769 173.658 331.213 173.478 331.634 173.274C333.677 172.351 335.395 171.199 336.657 169.88C338.135 168.333 338.988 166.558 339.024 164.663V160.178C338.976 158.307 338.123 156.556 336.657 155.021C335.395 153.702 333.689 152.538 331.634 151.627C331.201 151.435 330.769 151.255 330.312 151.075C329.435 150.751 328.51 150.452 327.548 150.212C325.217 149.624 322.646 149.3 319.93 149.3C315.496 149.3 311.41 150.176 308.166 151.651C306.111 152.586 304.404 153.75 303.143 155.081C301.713 156.604 300.884 158.331 300.835 160.178Z" fill="#E7972F"/>
<path d="M331.646 151.627V173.286C333.689 172.363 335.407 171.211 336.669 169.892V155.021C335.407 153.702 333.701 152.538 331.646 151.627Z" fill="#EFC077"/>
<path d="M303.143 155.081V169.82C304.392 171.152 306.111 172.327 308.166 173.25V151.639C306.111 152.575 304.404 153.738 303.143 155.069V155.081Z" fill="#BD811E"/>
<path d="M327.548 150.212V174.689C328.51 174.449 329.447 174.162 330.312 173.826V151.063C329.435 150.739 328.51 150.44 327.548 150.2V150.212Z" fill="#ECAF45"/>
<path d="M319.93 171.415C330.475 171.415 339.024 166.465 339.024 160.358C339.024 154.251 330.475 149.3 319.93 149.3C309.384 149.3 300.835 154.251 300.835 160.358C300.835 166.465 309.384 171.415 319.93 171.415Z" fill="#EAA644"/>
<path d="M319.93 169.676C324.724 169.676 329.219 168.609 332.559 166.666C335.612 164.903 337.294 162.66 337.294 160.346C337.294 158.031 335.612 155.788 332.559 154.025C329.219 152.083 324.724 151.015 319.93 151.015C315.135 151.015 310.641 152.083 307.3 154.025C304.248 155.788 302.566 158.031 302.566 160.346C302.566 162.66 304.248 164.903 307.3 166.666C310.641 168.609 315.135 169.676 319.93 169.676Z" fill="#BD811E"/>
<path d="M319.93 169.101C324.628 169.101 329.014 168.057 332.271 166.174C335.131 164.519 336.717 162.444 336.717 160.346C336.717 158.247 335.143 156.184 332.271 154.517C329.014 152.634 324.628 151.591 319.93 151.591C315.231 151.591 310.845 152.634 307.589 154.517C304.729 156.172 303.143 158.247 303.143 160.346C303.143 162.444 304.717 164.507 307.589 166.174C310.845 168.057 315.231 169.101 319.93 169.101Z" fill="#E7972F"/>
<path d="M304.296 160.358C304.296 162.025 305.666 163.74 308.166 165.191C310.365 166.462 313.129 167.338 316.157 167.722C317.37 167.877 318.644 167.961 319.93 167.961C321.084 167.961 322.213 167.901 323.307 167.77C323.859 167.71 324.412 167.626 324.941 167.53C326.034 167.338 327.092 167.074 328.089 166.762C329.399 166.342 330.613 165.815 331.694 165.191C334.194 163.752 335.564 162.037 335.564 160.358C335.564 158.679 334.194 156.976 331.694 155.525C328.606 153.738 324.424 152.754 319.93 152.754C318.067 152.754 316.253 152.922 314.559 153.246C313.477 153.45 312.432 153.726 311.458 154.062C310.99 154.218 310.533 154.385 310.1 154.577C309.427 154.865 308.779 155.177 308.178 155.525C307.192 156.088 306.387 156.7 305.774 157.336C304.825 158.307 304.308 159.339 304.308 160.358H304.296Z" fill="#E7AE29"/>
<path d="M305.762 157.336L316.157 167.71C317.37 167.866 318.644 167.95 319.93 167.95C321.083 167.95 322.213 167.89 323.306 167.758L310.088 154.565C309.415 154.853 308.766 155.165 308.166 155.513C307.18 156.077 306.375 156.688 305.762 157.324V157.336Z" fill="#EFC077"/>
<path d="M311.446 154.061L324.941 167.529C326.034 167.338 327.092 167.074 328.089 166.762L314.559 153.258C313.477 153.462 312.432 153.738 311.458 154.073L311.446 154.061Z" fill="#EFC077"/>
<path d="M301.136 151.831V156.316C301.172 158.187 302.001 159.938 303.443 161.473C304.693 162.804 306.411 163.979 308.466 164.903C311.71 166.378 315.796 167.253 320.23 167.253C322.934 167.253 325.517 166.93 327.849 166.342C328.81 166.102 329.747 165.814 330.612 165.478C331.069 165.311 331.514 165.131 331.934 164.927C333.977 164.003 335.695 162.852 336.957 161.533C338.435 159.986 339.288 158.211 339.324 156.316V151.831C339.276 149.96 338.423 148.209 336.957 146.674C335.695 145.354 333.989 144.191 331.934 143.268C331.502 143.076 331.069 142.896 330.612 142.716C329.735 142.392 328.81 142.092 327.849 141.852C325.517 141.265 322.946 140.941 320.23 140.941C315.796 140.941 311.71 141.816 308.466 143.292C306.411 144.227 304.705 145.39 303.443 146.722C302.013 148.245 301.184 149.972 301.136 151.819V151.831Z" fill="#E7972F"/>
<path d="M331.934 143.28V164.939C333.977 164.016 335.695 162.864 336.957 161.545V146.686C335.695 145.367 333.989 144.203 331.934 143.28Z" fill="#EFC077"/>
<path d="M303.443 146.733V161.473C304.693 162.804 306.411 163.979 308.466 164.903V143.292C306.411 144.227 304.705 145.39 303.443 146.721V146.733Z" fill="#BD811E"/>
<path d="M327.849 141.865V166.342C328.81 166.102 329.747 165.814 330.612 165.479V142.716C329.735 142.392 328.81 142.092 327.849 141.853V141.865Z" fill="#ECAF45"/>
<path d="M320.23 163.068C330.776 163.068 339.324 158.117 339.324 152.01C339.324 145.903 330.776 140.953 320.23 140.953C309.685 140.953 301.136 145.903 301.136 152.01C301.136 158.117 309.685 163.068 320.23 163.068Z" fill="#EAA644"/>
<path d="M320.23 161.329C325.025 161.329 329.519 160.261 332.86 158.318C335.912 156.556 337.594 154.313 337.594 151.998C337.594 149.684 335.912 147.441 332.86 145.678C329.519 143.735 325.025 142.68 320.23 142.68C315.436 142.68 310.941 143.747 307.601 145.678C304.549 147.441 302.866 149.684 302.866 151.998C302.866 154.313 304.549 156.556 307.601 158.318C310.941 160.261 315.436 161.329 320.23 161.329Z" fill="#BD811E"/>
<path d="M320.23 160.753C324.929 160.753 329.315 159.71 332.571 157.827C335.431 156.172 337.017 154.097 337.017 151.998C337.017 149.9 335.443 147.837 332.571 146.17C329.315 144.287 324.929 143.244 320.23 143.244C315.532 143.244 311.145 144.287 307.889 146.17C305.029 147.825 303.443 149.9 303.443 151.998C303.443 154.097 305.017 156.16 307.889 157.827C311.145 159.71 315.532 160.753 320.23 160.753Z" fill="#E7972F"/>
<path d="M304.597 152.01C304.597 153.677 305.967 155.392 308.466 156.843C310.665 158.115 313.429 158.99 316.457 159.374C317.671 159.53 318.944 159.614 320.23 159.614C321.384 159.614 322.513 159.554 323.607 159.422C324.16 159.362 324.712 159.278 325.241 159.182C326.335 158.99 327.392 158.726 328.39 158.414C329.699 157.995 330.913 157.467 331.994 156.843C334.494 155.404 335.864 153.689 335.864 152.01C335.864 150.331 334.494 148.628 331.994 147.177C328.906 145.39 324.724 144.407 320.23 144.407C318.368 144.407 316.553 144.575 314.859 144.898C313.777 145.102 312.732 145.378 311.759 145.714C311.29 145.87 310.833 146.038 310.401 146.23C309.728 146.517 309.079 146.829 308.478 147.177C307.493 147.741 306.688 148.352 306.075 148.988C305.125 149.959 304.609 150.991 304.609 152.01H304.597Z" fill="#E7AE29"/>
<path d="M306.062 148.988L316.457 159.362C317.671 159.518 318.944 159.602 320.23 159.602C321.384 159.602 322.513 159.542 323.607 159.41L310.388 146.218C309.716 146.506 309.067 146.817 308.466 147.165C307.48 147.729 306.675 148.341 306.062 148.976V148.988Z" fill="#EFC077"/>
<path d="M311.747 145.714L325.241 159.182C326.335 158.99 327.392 158.726 328.39 158.415L314.859 144.911C313.777 145.115 312.732 145.39 311.759 145.726L311.747 145.714Z" fill="#EFC077"/>
<path d="M304.008 142.296V146.782C304.044 148.653 304.873 150.404 306.315 151.939C307.565 153.27 309.283 154.445 311.338 155.369C314.582 156.844 318.668 157.719 323.102 157.719C325.806 157.719 328.389 157.395 330.721 156.808C331.682 156.568 332.619 156.28 333.484 155.944C333.941 155.776 334.386 155.596 334.806 155.393C336.849 154.469 338.567 153.318 339.829 151.999C341.307 150.452 342.16 148.677 342.196 146.782V142.296C342.148 140.425 341.295 138.674 339.829 137.139C338.567 135.82 336.861 134.657 334.806 133.733C334.374 133.541 333.941 133.362 333.484 133.182C332.607 132.858 331.682 132.558 330.721 132.318C328.389 131.731 325.818 131.407 323.102 131.407C318.668 131.407 314.582 132.282 311.338 133.757C309.283 134.693 307.577 135.856 306.315 137.187C304.885 138.71 304.056 140.437 304.008 142.284V142.296Z" fill="#E7972F"/>
<path d="M334.818 133.733V155.393C336.861 154.469 338.58 153.318 339.841 151.999V137.139C338.58 135.82 336.873 134.657 334.818 133.733Z" fill="#EFC077"/>
<path d="M306.315 137.199V151.939C307.565 153.27 309.283 154.445 311.338 155.369V133.757C309.283 134.693 307.577 135.856 306.315 137.187V137.199Z" fill="#BD811E"/>
<path d="M330.721 132.33V156.808C331.682 156.568 332.619 156.28 333.485 155.944V133.182C332.607 132.858 331.682 132.558 330.721 132.318V132.33Z" fill="#ECAF45"/>
<path d="M323.102 153.522C333.648 153.522 342.196 148.571 342.196 142.464C342.196 136.357 333.648 131.407 323.102 131.407C312.557 131.407 304.008 136.357 304.008 142.464C304.008 148.571 312.557 153.522 323.102 153.522Z" fill="#EAA644"/>
<path d="M323.102 151.795C327.897 151.795 332.391 150.727 335.732 148.785C338.784 147.022 340.466 144.779 340.466 142.464C340.466 140.15 338.784 137.907 335.732 136.144C332.391 134.201 327.897 133.134 323.102 133.134C318.308 133.134 313.813 134.201 310.473 136.144C307.421 137.907 305.738 140.15 305.738 142.464C305.738 144.779 307.421 147.022 310.473 148.785C313.813 150.727 318.308 151.795 323.102 151.795Z" fill="#BD811E"/>
<path d="M323.102 151.219C327.801 151.219 332.187 150.176 335.443 148.293C338.303 146.638 339.889 144.563 339.889 142.464C339.889 140.366 338.315 138.303 335.443 136.636C332.187 134.753 327.801 133.709 323.102 133.709C318.404 133.709 314.018 134.753 310.761 136.636C307.901 138.291 306.315 140.366 306.315 142.464C306.315 144.563 307.889 146.626 310.761 148.293C314.018 150.176 318.404 151.219 323.102 151.219Z" fill="#E7972F"/>
<path d="M307.469 142.464C307.469 144.131 308.839 145.846 311.338 147.298C313.537 148.569 316.301 149.444 319.329 149.828C320.543 149.984 321.817 150.068 323.102 150.068C324.256 150.068 325.385 150.008 326.479 149.876C327.032 149.816 327.585 149.732 328.113 149.636C329.207 149.444 330.264 149.18 331.262 148.869C332.571 148.449 333.785 147.921 334.867 147.298C337.366 145.858 338.736 144.143 338.736 142.464C338.736 140.785 337.366 139.082 334.867 137.631C331.778 135.844 327.597 134.861 323.102 134.861C321.24 134.861 319.425 135.029 317.731 135.353C316.649 135.556 315.604 135.832 314.631 136.168C314.162 136.324 313.705 136.492 313.273 136.684C312.6 136.972 311.951 137.283 311.35 137.631C310.365 138.195 309.56 138.807 308.947 139.442C307.997 140.414 307.481 141.445 307.481 142.464H307.469Z" fill="#E7AE29"/>
<path d="M308.935 139.454L319.329 149.828C320.543 149.984 321.816 150.068 323.102 150.068C324.256 150.068 325.385 150.008 326.479 149.876L313.261 136.684C312.588 136.971 311.939 137.283 311.338 137.631C310.353 138.195 309.547 138.806 308.935 139.442V139.454Z" fill="#EFC077"/>
<path d="M314.619 136.168L328.113 149.636C329.207 149.444 330.264 149.18 331.262 148.868L317.731 135.364C316.649 135.568 315.604 135.844 314.631 136.18L314.619 136.168Z" fill="#EFC077"/>
<path d="M258.573 179.822V184.308C258.609 186.178 259.438 187.929 260.88 189.465C262.13 190.796 263.849 191.971 265.903 192.894C269.148 194.37 273.233 195.245 277.668 195.245C280.371 195.245 282.955 194.921 285.286 194.334C286.247 194.094 287.185 193.806 288.05 193.47C288.507 193.302 288.951 193.122 289.372 192.918C291.415 191.995 293.133 190.844 294.395 189.524C295.873 187.977 296.726 186.202 296.762 184.308V179.822C296.714 177.951 295.861 176.2 294.395 174.665C293.133 173.346 291.427 172.183 289.372 171.259C288.939 171.067 288.507 170.887 288.05 170.708C287.173 170.384 286.247 170.084 285.286 169.844C282.955 169.256 280.383 168.933 277.668 168.933C273.233 168.933 269.148 169.808 265.903 171.283C263.849 172.219 262.142 173.382 260.88 174.713C259.45 176.236 258.621 177.963 258.573 179.81V179.822Z" fill="#E7972F"/>
<path d="M289.384 171.259V192.919C291.427 191.995 293.145 190.844 294.407 189.525V174.665C293.145 173.346 291.439 172.183 289.384 171.259Z" fill="#EFC077"/>
<path d="M260.88 174.725V189.464C262.13 190.796 263.848 191.971 265.903 192.894V171.283C263.848 172.219 262.142 173.382 260.88 174.713V174.725Z" fill="#BD811E"/>
<path d="M285.286 169.856V194.334C286.247 194.094 287.185 193.806 288.05 193.47V170.708C287.173 170.384 286.247 170.084 285.286 169.844V169.856Z" fill="#ECAF45"/>
<path d="M277.668 191.048C288.213 191.048 296.762 186.097 296.762 179.99C296.762 173.883 288.213 168.933 277.668 168.933C267.122 168.933 258.573 173.883 258.573 179.99C258.573 186.097 267.122 191.048 277.668 191.048Z" fill="#EAA644"/>
<path d="M277.668 189.321C282.462 189.321 286.957 188.253 290.297 186.31C293.349 184.547 295.032 182.305 295.032 179.99C295.032 177.676 293.349 175.433 290.297 173.67C286.957 171.727 282.462 170.66 277.668 170.66C272.873 170.66 268.379 171.727 265.038 173.67C261.986 175.433 260.304 177.676 260.304 179.99C260.304 182.305 261.986 184.547 265.038 186.31C268.379 188.253 272.873 189.321 277.668 189.321Z" fill="#BD811E"/>
<path d="M277.668 188.745C282.366 188.745 286.752 187.702 290.009 185.819C292.869 184.164 294.455 182.089 294.455 179.99C294.455 177.891 292.881 175.829 290.009 174.162C286.752 172.279 282.366 171.235 277.668 171.235C272.969 171.235 268.583 172.279 265.327 174.162C262.467 175.817 260.88 177.891 260.88 179.99C260.88 182.089 262.455 184.152 265.327 185.819C268.583 187.702 272.969 188.745 277.668 188.745Z" fill="#E7972F"/>
<path d="M262.034 179.99C262.034 181.657 263.404 183.372 265.904 184.823C268.103 186.095 270.866 186.97 273.895 187.354C275.108 187.51 276.382 187.594 277.668 187.594C278.821 187.594 279.951 187.534 281.044 187.402C281.597 187.342 282.15 187.258 282.679 187.162C283.772 186.97 284.83 186.706 285.827 186.394C287.137 185.975 288.351 185.447 289.432 184.823C291.931 183.384 293.301 181.669 293.301 179.99C293.301 178.311 291.931 176.608 289.432 175.157C286.344 173.37 282.162 172.387 277.668 172.387C275.805 172.387 273.991 172.555 272.296 172.878C271.215 173.082 270.169 173.358 269.196 173.694C268.727 173.85 268.271 174.018 267.838 174.21C267.165 174.497 266.516 174.809 265.916 175.157C264.93 175.721 264.125 176.332 263.512 176.968C262.563 177.939 262.046 178.971 262.046 179.99H262.034Z" fill="#E7AE29"/>
<path d="M263.5 176.98L273.894 187.354C275.108 187.51 276.382 187.594 277.668 187.594C278.821 187.594 279.951 187.534 281.044 187.402L267.826 174.209C267.153 174.497 266.504 174.809 265.903 175.157C264.918 175.721 264.113 176.332 263.5 176.968V176.98Z" fill="#EFC077"/>
<path d="M269.184 173.694L282.679 187.162C283.772 186.97 284.83 186.706 285.827 186.394L272.296 172.89C271.215 173.094 270.169 173.37 269.196 173.706L269.184 173.694Z" fill="#EFC077"/>
<path d="M228.664 192.715L210.867 182.461V176.057L228.664 186.311V192.715Z" fill="#9BC0F2"/>
<path d="M228.664 186.31L232.629 184.032V188.541C232.629 189.716 232.004 190.796 230.983 191.371L228.664 192.703V186.31Z" fill="#0367BF"/>
<path d="M228.664 186.31L210.867 176.057L214.833 173.778L232.629 184.032L228.664 186.31Z" fill="#6195D8"/>
<path d="M155.014 151.171L137.217 140.917V134.513L155.014 144.767V151.171Z" fill="#9BC0F2"/>
<path d="M155.014 144.767L158.979 142.488V146.998C158.979 148.173 158.354 149.252 157.333 149.828L155.014 151.159V144.767Z" fill="#0367BF"/>
<path d="M155.014 144.767L137.217 134.513L141.183 132.234L158.979 142.488L155.014 144.767Z" fill="#6195D8"/>
<path d="M116.068 11.3212L119.409 9.51025L120.406 11.0214L116.873 12.7124L116.068 11.3212Z" fill="#9BC0F2"/>
<path d="M253.838 146.302L250.606 148.065L250.233 145.486L253.562 143.627L253.838 146.302Z" fill="#9BC0F2"/>
<path d="M251.483 196.708L121.752 121.956C119.565 120.697 117.787 117.315 117.787 114.401V12.8205C117.787 9.90625 119.565 8.56304 121.752 9.83429L251.483 84.5862C253.67 85.8455 255.449 89.2275 255.449 92.1418V193.734C255.449 196.648 253.67 197.991 251.483 196.72V196.708Z" fill="#9BC0F2"/>
<path d="M248.251 198.471L118.52 123.719C116.333 122.46 114.554 119.078 114.554 116.164V14.5715C114.554 11.6572 116.333 10.314 118.52 11.5853L248.251 86.3372C250.438 87.5965 252.216 90.9785 252.216 93.8928V195.485C252.216 198.399 250.438 199.742 248.251 198.471Z" fill="#0367BF"/>
<path d="M120.67 112.638V25.1491C120.67 22.2349 122.449 20.8917 124.636 22.1629L242.134 89.863C244.321 91.1223 246.1 94.5043 246.1 97.4186V184.907C246.1 187.821 244.321 189.164 242.134 187.893L124.636 120.193C122.449 118.934 120.67 115.552 120.67 112.638Z" fill="white"/>
<path d="M35.7614 181.825H22.2188V189.164H35.7614V181.825Z" fill="#0367BF"/>
<path d="M252.216 204.6H243.769V212.251H252.216V204.6Z" fill="#0367BF"/>
<path d="M153.428 266.003L23.6969 191.251C21.5099 189.992 21.7863 187.785 24.3098 186.334L112.463 135.544C114.987 134.093 118.82 133.925 121.007 135.196L250.738 209.948C252.925 211.208 252.649 213.414 250.125 214.866L161.972 265.656C159.448 267.107 155.615 267.275 153.428 266.003Z" fill="#0367BF"/>
<path d="M153.428 258.76L23.6969 184.008C21.5099 182.749 21.7863 180.542 24.3098 179.091L112.463 128.301C114.987 126.849 118.82 126.682 121.007 127.953L185.873 165.329L250.738 202.705C252.925 203.964 252.649 206.171 250.125 207.622L161.972 258.412C159.448 259.863 155.615 260.031 153.428 258.76Z" fill="#C1D6F2"/>
<path d="M66.2958 161.941L113.389 134.813C115.408 133.649 118.472 133.517 120.214 134.525L239.299 203.148C241.053 204.156 240.825 205.919 238.806 207.082L191.713 234.21C189.694 235.373 186.63 235.505 184.887 234.498L65.8031 165.874C64.0487 164.867 64.277 163.104 66.2958 161.941Z" fill="#6195D8"/>
<path d="M77.7355 203.664L95.9406 193.171C98.0195 191.971 101.168 191.839 102.97 192.883L138.035 213.091C139.837 214.134 139.609 215.945 137.53 217.144L119.325 227.638C117.246 228.837 114.098 228.969 112.295 227.926L77.2308 207.718C75.4283 206.675 75.6566 204.864 77.7355 203.664Z" fill="#6195D8"/>
<path d="M119.493 145.427L111.358 140.737C110.481 140.234 110.481 139.406 111.358 138.903L115.504 136.516C116.381 136.012 117.811 136.012 118.688 136.516L126.823 141.205C127.701 141.709 127.701 142.536 126.823 143.04L122.678 145.427C121.801 145.93 120.371 145.93 119.493 145.427Z" fill="#C1D6F2"/>
<path d="M133.12 153.27L124.985 148.581C124.108 148.077 124.108 147.25 124.985 146.746L129.131 144.359C130.008 143.856 131.438 143.856 132.315 144.359L140.45 149.048C141.328 149.552 141.328 150.38 140.45 150.883L136.305 153.27C135.427 153.774 133.997 153.774 133.12 153.27Z" fill="#C1D6F2"/>
<path d="M146.747 161.125L138.612 156.436C137.734 155.933 137.734 155.105 138.612 154.601L142.757 152.215C143.634 151.711 145.064 151.711 145.942 152.215L154.077 156.904C154.954 157.408 154.954 158.235 154.077 158.739L149.931 161.125C149.054 161.629 147.624 161.629 146.747 161.125Z" fill="#C1D6F2"/>
<path d="M160.374 168.981L152.238 164.292C151.361 163.788 151.361 162.96 152.238 162.457L156.384 160.07C157.261 159.566 158.691 159.566 159.569 160.07L167.704 164.759C168.581 165.263 168.581 166.091 167.704 166.594L163.558 168.981C162.681 169.485 161.251 169.485 160.374 168.981Z" fill="#C1D6F2"/>
<path d="M174.001 176.824L165.865 172.135C164.988 171.631 164.988 170.804 165.865 170.3L170.011 167.913C170.888 167.41 172.318 167.41 173.196 167.913L181.331 172.603C182.208 173.106 182.208 173.934 181.331 174.438L177.185 176.824C176.308 177.328 174.878 177.328 174.001 176.824Z" fill="#C1D6F2"/>
<path d="M187.627 184.68L179.492 179.99C178.615 179.487 178.615 178.659 179.492 178.155L183.638 175.769C184.515 175.265 185.945 175.265 186.822 175.769L194.957 180.458C195.834 180.962 195.834 181.789 194.957 182.293L190.812 184.68C189.934 185.183 188.504 185.183 187.627 184.68Z" fill="#C1D6F2"/>
<path d="M201.254 192.535L193.119 187.846C192.242 187.342 192.242 186.515 193.119 186.011L197.265 183.624C198.142 183.121 199.572 183.121 200.449 183.624L208.584 188.314C209.461 188.817 209.461 189.645 208.584 190.149L204.438 192.535C203.561 193.039 202.131 193.039 201.254 192.535Z" fill="#C1D6F2"/>
<path d="M214.869 200.378L206.734 195.689C205.856 195.185 205.856 194.358 206.734 193.854L210.879 191.468C211.757 190.964 213.187 190.964 214.064 191.468L222.199 196.157C223.076 196.661 223.076 197.488 222.199 197.992L218.053 200.378C217.176 200.882 215.746 200.882 214.869 200.378Z" fill="#C1D6F2"/>
<path d="M228.496 208.234L220.361 203.545C219.483 203.041 219.483 202.213 220.361 201.71L224.506 199.323C225.383 198.819 226.813 198.819 227.691 199.323L235.826 204.012C236.703 204.516 236.703 205.344 235.826 205.847L231.68 208.234C230.803 208.738 229.373 208.738 228.496 208.234Z" fill="#C1D6F2"/>
<path d="M116.345 154.733L101.72 146.302C100.843 145.798 100.843 144.971 101.72 144.467L105.866 142.08C106.743 141.577 108.173 141.577 109.051 142.08L123.675 150.511C124.552 151.015 124.552 151.843 123.675 152.346L119.529 154.733C118.652 155.237 117.222 155.237 116.345 154.733Z" fill="#C1D6F2"/>
<path d="M129.971 162.576L121.836 157.887C120.959 157.383 120.959 156.556 121.836 156.052L125.982 153.665C126.859 153.162 128.289 153.162 129.166 153.665L137.301 158.355C138.179 158.858 138.179 159.686 137.301 160.19L133.156 162.576C132.279 163.08 130.849 163.08 129.971 162.576Z" fill="#C1D6F2"/>
<path d="M143.586 170.432L135.451 165.742C134.574 165.239 134.574 164.411 135.451 163.907L139.597 161.521C140.474 161.017 141.904 161.017 142.781 161.521L150.916 166.21C151.793 166.714 151.793 167.541 150.916 168.045L146.77 170.432C145.893 170.935 144.463 170.935 143.586 170.432Z" fill="#C1D6F2"/>
<path d="M157.213 178.287L149.078 173.598C148.201 173.094 148.201 172.267 149.078 171.763L153.224 169.376C154.101 168.873 155.531 168.873 156.408 169.376L164.543 174.066C165.42 174.569 165.42 175.397 164.543 175.9L160.397 178.287C159.52 178.791 158.09 178.791 157.213 178.287Z" fill="#C1D6F2"/>
<path d="M170.84 186.13L162.705 181.441C161.828 180.937 161.828 180.11 162.705 179.606L166.851 177.22C167.728 176.716 169.158 176.716 170.035 177.22L178.17 181.909C179.047 182.413 179.047 183.24 178.17 183.744L174.024 186.13C173.147 186.634 171.717 186.634 170.84 186.13Z" fill="#C1D6F2"/>
<path d="M184.466 193.986L176.331 189.297C175.454 188.793 175.454 187.965 176.331 187.462L180.477 185.075C181.354 184.571 182.784 184.571 183.661 185.075L191.797 189.764C192.674 190.268 192.674 191.095 191.797 191.599L187.651 193.986C186.774 194.489 185.344 194.489 184.466 193.986Z" fill="#C1D6F2"/>
<path d="M198.093 201.841L189.958 197.152C189.081 196.648 189.081 195.821 189.958 195.317L194.104 192.931C194.981 192.427 196.411 192.427 197.288 192.931L205.424 197.62C206.301 198.123 206.301 198.951 205.424 199.455L201.278 201.841C200.401 202.345 198.971 202.345 198.093 201.841Z" fill="#C1D6F2"/>
<path d="M218.846 213.798L203.922 205.199C203.044 204.696 203.044 203.868 203.922 203.364L208.067 200.978C208.945 200.474 210.374 200.474 211.252 200.978L226.176 209.577C227.054 210.081 227.054 210.908 226.176 211.412L222.031 213.798C221.153 214.302 219.723 214.302 218.846 213.798Z" fill="#C1D6F2"/>
<path d="M97.034 165.851L82.4099 157.42C81.5327 156.916 81.5327 156.088 82.4099 155.585L86.5556 153.198C87.4328 152.694 88.8628 152.694 89.74 153.198L104.364 161.629C105.241 162.133 105.241 162.96 104.364 163.464L100.218 165.851C99.3412 166.354 97.9113 166.354 97.034 165.851Z" fill="#C1D6F2"/>
<path d="M110.661 173.706L102.526 169.017C101.648 168.513 101.648 167.686 102.526 167.182L106.671 164.795C107.549 164.292 108.978 164.292 109.856 164.795L117.991 169.484C118.868 169.988 118.868 170.816 117.991 171.319L113.845 173.706C112.968 174.21 111.538 174.21 110.661 173.706Z" fill="#C1D6F2"/>
<path d="M124.288 181.561L116.153 176.872C115.275 176.369 115.275 175.541 116.153 175.037L120.298 172.651C121.175 172.147 122.605 172.147 123.483 172.651L131.618 177.34C132.495 177.844 132.495 178.671 131.618 179.175L127.472 181.561C126.595 182.065 125.165 182.065 124.288 181.561Z" fill="#C1D6F2"/>
<path d="M137.914 189.405L129.779 184.716C128.902 184.212 128.902 183.384 129.779 182.881L133.925 180.494C134.802 179.99 136.232 179.99 137.109 180.494L145.244 185.183C146.122 185.687 146.122 186.514 145.244 187.018L141.099 189.405C140.221 189.908 138.791 189.908 137.914 189.405Z" fill="#C1D6F2"/>
<path d="M151.541 197.26L143.406 192.571C142.529 192.067 142.529 191.24 143.406 190.736L147.552 188.349C148.429 187.846 149.859 187.846 150.736 188.349L158.871 193.039C159.749 193.542 159.749 194.37 158.871 194.874L154.726 197.26C153.848 197.764 152.418 197.764 151.541 197.26Z" fill="#C1D6F2"/>
<path d="M165.168 205.116L157.033 200.426C156.156 199.923 156.156 199.095 157.033 198.592L161.179 196.205C162.056 195.701 163.486 195.701 164.363 196.205L172.498 200.894C173.375 201.398 173.375 202.225 172.498 202.729L168.353 205.116C167.475 205.619 166.045 205.619 165.168 205.116Z" fill="#C1D6F2"/>
<path d="M178.795 212.959L170.66 208.27C169.783 207.766 169.783 206.938 170.66 206.435L174.806 204.048C175.683 203.544 177.113 203.544 177.99 204.048L186.125 208.737C187.002 209.241 187.002 210.069 186.125 210.572L181.979 212.959C181.102 213.463 179.672 213.463 178.795 212.959Z" fill="#C1D6F2"/>
<path d="M199.547 224.916L184.623 216.317C183.746 215.813 183.746 214.986 184.623 214.482L188.768 212.096C189.646 211.592 191.076 211.592 191.953 212.096L206.877 220.694C207.755 221.198 207.755 222.026 206.877 222.529L202.732 224.916C201.855 225.42 200.425 225.42 199.547 224.916Z" fill="#C1D6F2"/>
<path d="M100.194 156.544L92.0593 151.855C91.1821 151.351 91.1821 150.523 92.0593 150.02L96.205 147.633C97.0822 147.129 98.5122 147.129 99.3894 147.633L107.525 152.322C108.402 152.826 108.402 153.654 107.525 154.157L103.379 156.544C102.502 157.048 101.072 157.048 100.194 156.544Z" fill="#C1D6F2"/>
<path d="M113.821 164.399L105.686 159.71C104.809 159.206 104.809 158.379 105.686 157.875L109.832 155.489C110.709 154.985 112.139 154.985 113.016 155.489L121.152 160.178C122.029 160.682 122.029 161.509 121.152 162.013L117.006 164.399C116.129 164.903 114.699 164.903 113.821 164.399Z" fill="#C1D6F2"/>
<path d="M127.448 172.255L119.313 167.566C118.435 167.062 118.435 166.234 119.313 165.731L123.458 163.344C124.336 162.84 125.766 162.84 126.643 163.344L134.778 168.033C135.655 168.537 135.655 169.365 134.778 169.868L130.632 172.255C129.755 172.759 128.325 172.759 127.448 172.255Z" fill="#C1D6F2"/>
<path d="M141.063 180.098L132.927 175.409C132.05 174.905 132.05 174.078 132.927 173.574L137.073 171.187C137.95 170.684 139.38 170.684 140.258 171.187L148.393 175.877C149.27 176.38 149.27 177.208 148.393 177.711L144.247 180.098C143.37 180.602 141.94 180.602 141.063 180.098Z" fill="#C1D6F2"/>
<path d="M154.69 187.954L146.554 183.264C145.677 182.761 145.677 181.933 146.554 181.429L150.7 179.043C151.577 178.539 153.007 178.539 153.885 179.043L162.02 183.732C162.897 184.236 162.897 185.063 162.02 185.567L157.874 187.954C156.997 188.457 155.567 188.457 154.69 187.954Z" fill="#C1D6F2"/>
<path d="M168.317 195.809L160.181 191.119C159.304 190.616 159.304 189.788 160.181 189.284L164.327 186.898C165.204 186.394 166.634 186.394 167.511 186.898L175.647 191.587C176.524 192.091 176.524 192.918 175.647 193.422L171.501 195.809C170.624 196.312 169.194 196.312 168.317 195.809Z" fill="#C1D6F2"/>
<path d="M181.944 203.652L173.808 198.963C172.931 198.459 172.931 197.632 173.808 197.128L177.954 194.742C178.831 194.238 180.261 194.238 181.138 194.742L189.274 199.431C190.151 199.934 190.151 200.762 189.274 201.266L185.128 203.652C184.251 204.156 182.821 204.156 181.944 203.652Z" fill="#C1D6F2"/>
<path d="M209.197 219.363L187.531 206.878C186.654 206.374 186.654 205.547 187.531 205.043L191.677 202.657C192.554 202.153 193.984 202.153 194.861 202.657L216.527 215.141C217.404 215.645 217.404 216.472 216.527 216.976L212.381 219.363C211.504 219.866 210.074 219.866 209.197 219.363Z" fill="#C1D6F2"/>
<path d="M80.884 167.673L72.7487 162.984C71.8715 162.48 71.8715 161.653 72.7487 161.149L76.8945 158.763C77.7717 158.259 79.2016 158.259 80.0788 158.763L88.2141 163.452C89.0913 163.955 89.0913 164.783 88.2141 165.287L84.0683 167.673C83.1911 168.177 81.7612 168.177 80.884 167.673Z" fill="#C1D6F2"/>
<path d="M94.5109 175.517L86.3757 170.827C85.4985 170.324 85.4985 169.496 86.3757 168.992L90.5214 166.606C91.3986 166.102 92.8286 166.102 93.7058 166.606L101.841 171.295C102.718 171.799 102.718 172.626 101.841 173.13L97.6953 175.517C96.8181 176.02 95.3881 176.02 94.5109 175.517Z" fill="#C1D6F2"/>
<path d="M149.018 206.926L100.014 178.683C99.1371 178.179 99.1371 177.352 100.014 176.848L104.16 174.461C105.037 173.958 106.467 173.958 107.344 174.461L156.348 202.705C157.225 203.208 157.225 204.036 156.348 204.54L152.202 206.926C151.325 207.43 149.895 207.43 149.018 206.926Z" fill="#C1D6F2"/>
<path d="M162.645 214.782L154.509 210.092C153.632 209.589 153.632 208.761 154.509 208.258L158.655 205.871C159.532 205.367 160.962 205.367 161.84 205.871L169.975 210.56C170.852 211.064 170.852 211.891 169.975 212.395L165.829 214.782C164.952 215.285 163.522 215.285 162.645 214.782Z" fill="#C1D6F2"/>
<path d="M176.272 222.625L168.136 217.936C167.259 217.432 167.259 216.605 168.136 216.101L172.282 213.714C173.159 213.211 174.589 213.211 175.467 213.714L183.602 218.403C184.479 218.907 184.479 219.735 183.602 220.238L179.456 222.625C178.579 223.129 177.149 223.129 176.272 222.625Z" fill="#C1D6F2"/>
<path d="M189.899 230.48L181.763 225.791C180.886 225.287 180.886 224.46 181.763 223.956L185.909 221.57C186.786 221.066 188.216 221.066 189.094 221.57L197.229 226.259C198.106 226.763 198.106 227.59 197.229 228.094L193.083 230.48C192.206 230.984 190.776 230.984 189.899 230.48Z" fill="#C1D6F2"/>
<path d="M223.28 227.494V226.055C223.28 225.719 223.485 225.336 223.737 225.192L231.884 220.502C232.137 220.358 232.341 220.502 232.341 220.838V222.277C232.341 222.613 232.137 222.997 231.884 223.141L223.737 227.83C223.485 227.974 223.28 227.83 223.28 227.494Z" fill="#9BC0F2"/>
<path d="M211.24 234.438V232.999C211.24 232.663 211.444 232.279 211.696 232.135L219.844 227.446C220.096 227.302 220.3 227.446 220.3 227.782V229.221C220.3 229.557 220.096 229.941 219.844 230.085L211.696 234.774C211.444 234.918 211.24 234.774 211.24 234.438Z" fill="#9BC0F2"/>
<path d="M230.094 165.155C229.217 161.713 228.003 158.211 226.489 154.781C225.912 153.474 225.239 152.107 224.29 151.123C222.295 149.061 220.156 149.732 219.003 151.135C217.849 152.551 217.044 154.577 215.254 154.913C214.761 155.009 214.184 154.949 213.595 154.589C212.742 154.062 212.009 153.006 211.396 151.975C208.02 146.338 206.542 140.114 205.352 134.249C204.943 132.199 204.499 130.04 203.357 128.037C202.216 126.046 200.113 124.391 199.007 125.135C198.238 125.65 198.202 127.066 198.034 128.265C197.866 129.464 197.349 130.639 196.231 130.268C194.885 129.812 193.84 127.581 193.311 125.818C192.026 121.609 191.401 117.483 189.995 113.274C188.589 109.064 186.125 104.471 182.893 102.048C182.629 101.844 182.328 101.653 182.1 101.664C181.763 101.688 181.643 102.084 181.559 102.468C180.033 109.124 179.769 117.231 175.755 121.129C175.274 121.597 174.65 121.981 173.856 121.513C172.739 120.853 172.114 119.042 171.802 117.627C169.422 106.738 170.54 96.9873 167.728 86.0137C167.331 84.4546 166.671 82.6077 165.469 81.6723C163.582 80.1971 162.537 82.3679 162.104 84.2867C161.335 87.7287 160.302 90.9548 159.016 93.9171C158.776 94.4567 158.499 95.0204 157.959 95.0924C156.553 95.2483 155.026 92.382 154.318 90.2712C150.34 78.4582 147.312 66.4053 141.231 55" stroke="#F7D13A" stroke-width="1.22" stroke-miterlimit="10"/>
<path d="M233.891 145.115C231.235 144.204 229.216 145.547 227.798 147.394C224.638 151.519 223.424 158.331 218.87 160.298C217.668 157.851 217.248 155.333 216.599 152.862C215.95 150.38 214.857 147.586 213.018 145.823C210.134 143.064 207.334 144.515 205.868 146.746C205.303 147.61 204.667 148.617 203.513 148.245C201.626 147.622 200.425 144.227 200.076 141.841C198.694 132.546 199.379 123.947 196.688 114.329C196.555 113.849 196.375 113.31 196.039 112.938C195.39 112.23 194.765 112.698 194.404 113.214C191.364 117.699 188.648 122.568 186.281 127.809C185.031 130.568 183.878 133.434 182.412 135.952C182.232 136.276 182.015 136.6 181.643 136.588C180.862 136.588 180.009 135.197 179.552 134.069C177.497 128.984 177.497 124.139 176.367 119.126C176.187 118.347 175.959 117.495 175.454 116.8C174.673 115.72 173.544 115.444 172.871 115.84C172.198 116.236 171.873 117.123 171.525 117.939C170.575 120.11 169.278 121.909 167.679 123.264C166.61 124.163 164.723 124.571 163.378 122.592C162.885 121.873 162.633 121.033 162.428 120.23C159.28 108.465 159.977 97.623 156.264 85.7979C156.011 84.9944 155.711 84.1309 155.182 83.4353C154.089 81.9722 152.623 81.9482 151.625 82.368C148.91 83.5313 147.396 86.6015 145.869 89.4918C143.406 94.193 140.714 98.6304 137.806 102.804C136.797 104.255 135.139 105.622 133.192 103.835" stroke="#F27404" stroke-width="1.22" stroke-miterlimit="10"/>
<path d="M233.627 157.923C232.065 153.522 230.37 148.893 227.486 145.115C224.614 141.337 220.18 138.926 218.354 141.205C217.585 142.165 217.104 143.916 215.674 143.352C214.58 142.92 213.643 141.349 212.922 139.982C210.411 135.221 208.128 130.351 206.097 125.458C205.58 124.199 205.027 122.868 204.162 121.849C202.372 119.726 200.197 119.99 198.863 120.973C197.529 121.956 196.375 123.468 194.465 123.132C192.41 122.772 190.079 120.265 188.589 117.579C187.099 114.893 186.281 112.014 185.452 109.22C184.527 106.066 183.037 102.192 180.586 100.741C179.516 100.105 178.519 100.141 177.521 100.033C173.532 99.6016 169.074 96.8432 164.784 94.0129C161.371 91.7582 157.886 89.3477 154.786 85.9057C151.025 81.7321 148.141 76.3953 145.485 71.1904C141.063 62.5075 136.965 53.7047 132.868 44.9019" stroke="#85BFF2" stroke-width="1.22" stroke-miterlimit="10"/>
<path d="M259.967 317.993L206.649 287.291C204.054 285.792 204.378 283.189 207.37 281.462L305.798 224.712C308.79 222.985 313.32 222.793 315.916 224.292L369.234 254.994C371.829 256.493 371.505 259.096 368.513 260.822L270.085 317.573C267.093 319.3 262.562 319.492 259.967 317.993Z" fill="#E0EDF8"/>
<path d="M253.67 315.138L200.352 284.436C197.757 282.937 198.081 280.335 201.073 278.608L299.501 221.857C302.493 220.13 307.024 219.938 309.619 221.438L362.937 252.139C365.532 253.639 365.208 256.241 362.216 257.968L263.788 314.719C260.796 316.446 256.265 316.637 253.67 315.138Z" fill="#3587F2"/>
<path d="M364.703 248.974H360.654V254.802H364.703V248.974Z" fill="#3587F2"/>
<path d="M203.465 276.042H198.598V282.038H203.465V276.042Z" fill="#3587F2"/>
<path d="M253.67 309.43L200.352 278.728C197.757 277.229 198.081 274.626 201.073 272.899L299.501 216.149C302.493 214.422 307.024 214.23 309.619 215.729L362.937 246.431C365.532 247.93 365.208 250.533 362.216 252.259L263.788 309.01C260.796 310.737 256.265 310.929 253.67 309.43Z" fill="#85BFF2"/>
<path d="M205.844 274.135L299.646 220.047C301.436 219.015 304.164 218.895 305.714 219.795L355.859 248.674C357.409 249.573 357.217 251.132 355.427 252.176L261.625 306.264C259.835 307.295 257.107 307.415 255.557 306.516L205.412 277.637C203.861 276.737 204.054 275.178 205.844 274.135Z" fill="white"/>
<path d="M330.925 230.708L336.909 234.162C337.269 234.366 337.221 234.726 336.813 234.966C336.404 235.206 335.779 235.23 335.431 235.026L329.446 231.572C329.086 231.368 329.134 231.008 329.543 230.768C329.951 230.528 330.576 230.504 330.925 230.708Z" fill="#3587F2"/>
<path d="M342.136 266.495C342.136 267.119 342.509 267.395 342.977 267.131L351.701 262.094C352.17 261.83 352.543 261.11 352.543 260.487C352.543 259.875 352.17 259.587 351.701 259.851L342.977 264.888C342.509 265.152 342.136 265.871 342.136 266.495Z" fill="#2B65D8"/>
<path d="M328.834 274.159C328.834 274.77 329.207 275.058 329.675 274.794L338.399 269.757C338.868 269.493 339.24 268.774 339.24 268.15C339.24 267.539 338.868 267.251 338.399 267.515L329.675 272.552C329.207 272.815 328.834 273.535 328.834 274.159Z" fill="#2B65D8"/>
<path d="M219.423 292.34C219.423 292.963 219.795 293.671 220.264 293.947L228.988 298.972C229.457 299.236 229.829 298.96 229.829 298.336C229.829 297.725 229.457 297.005 228.988 296.729L220.264 291.704C219.795 291.44 219.423 291.716 219.423 292.34Z" fill="#2B65D8"/>
<path d="M302.469 262.837L315.58 255.282L302.469 247.726L289.359 255.282L302.469 262.837Z" fill="#E0EDF8"/>
<path d="M320.566 252.307L333.677 244.752L320.566 237.196L307.444 244.752L320.566 252.307Z" fill="#E0EDF8"/>
<path d="M318.307 251.78L330.252 244.896V238.863L318.307 245.735V251.78Z" fill="#F28704"/>
<path d="M306.375 244.896L318.307 251.78V245.735L306.375 238.863V244.896Z" fill="#F2B604"/>
<path d="M318.307 245.747L330.251 238.863L318.307 231.991L306.375 238.863L318.307 245.747Z" fill="#F29F04"/>
<path d="M300.403 262.105L312.347 255.234V232.567L300.403 239.439V262.105Z" fill="#F28704"/>
<path d="M288.47 255.234L300.403 262.105V239.439L288.47 232.567V255.234Z" fill="#F2B604"/>
<path d="M300.403 239.451L312.347 232.567L300.403 225.695L288.47 232.567L300.403 239.451Z" fill="#F29F04"/>
<path d="M284.757 272.995L297.867 265.439L284.757 257.884L271.647 265.439L284.757 272.995Z" fill="#E0EDF8"/>
<path d="M282.498 272.431L294.443 265.547V250.017L282.498 256.889V272.431Z" fill="#F28704"/>
<path d="M270.565 265.547L282.498 272.431V256.889L270.565 250.017V265.547Z" fill="#F2B604"/>
<path d="M282.498 256.9L294.442 250.016L282.498 243.145L270.565 250.016L282.498 256.9Z" fill="#F29F04"/>
<path d="M266.672 283.525L279.782 275.969L266.672 268.414L253.562 275.969L266.672 283.525Z" fill="#E0EDF8"/>
<path d="M264.593 282.709L276.538 275.837V244.26L264.593 251.144V282.709Z" fill="#F28704"/>
<path d="M252.661 275.837L264.593 282.709V251.144L252.661 244.26V275.837Z" fill="#F2B604"/>
<path d="M264.593 251.144L276.538 244.272L264.593 237.388L252.661 244.272L264.593 251.144Z" fill="#F29F04"/>
<path d="M248.202 294.054L261.312 286.499L248.202 278.943L235.092 286.499L248.202 294.054Z" fill="#E0EDF8"/>
<path d="M246.688 293.059L258.633 286.187V237.976L246.688 244.86V293.059Z" fill="#F28704"/>
<path d="M234.756 286.187L246.688 293.059V244.86L234.756 237.976V286.187Z" fill="#F2B604"/>
<path d="M246.688 244.859L258.633 237.987L246.688 231.104L234.756 237.987L246.688 244.859Z" fill="#F29F04"/>
<path d="M143.598 292.976V297.893C143.634 299.932 144.547 301.862 146.121 303.541C147.491 305.005 149.366 306.288 151.613 307.307C155.17 308.914 159.64 309.886 164.507 309.886C167.475 309.886 170.287 309.526 172.846 308.89C173.904 308.626 174.925 308.303 175.875 307.943C176.379 307.751 176.86 307.559 177.329 307.343C179.564 306.336 181.45 305.064 182.82 303.625C184.442 301.922 185.368 299.979 185.404 297.917V293C185.344 290.949 184.418 289.03 182.808 287.351C181.426 285.9 179.552 284.641 177.316 283.621C176.848 283.405 176.367 283.213 175.862 283.021C174.901 282.662 173.892 282.35 172.834 282.074C170.275 281.426 167.463 281.079 164.495 281.079C159.628 281.079 155.158 282.038 151.601 283.657C149.354 284.677 147.479 285.96 146.109 287.423C144.547 289.09 143.634 290.985 143.586 293.012L143.598 292.976Z" fill="#E0EDF8"/>
<path d="M148.633 291.668V296.153C148.669 298.024 149.498 299.775 150.94 301.31C152.19 302.641 153.909 303.817 155.963 304.74C159.208 306.215 163.294 307.091 167.728 307.091C170.431 307.091 173.015 306.767 175.346 306.179C176.307 305.94 177.245 305.652 178.11 305.316C178.567 305.148 179.011 304.968 179.432 304.764C181.475 303.841 183.193 302.689 184.455 301.37C185.933 299.823 186.786 298.048 186.822 296.153V291.668C186.774 289.797 185.921 288.046 184.455 286.511C183.193 285.192 181.487 284.028 179.432 283.105C178.999 282.913 178.567 282.733 178.11 282.553C177.233 282.229 176.307 281.93 175.346 281.69C173.015 281.102 170.443 280.778 167.728 280.778C163.294 280.778 159.208 281.654 155.963 283.129C153.909 284.064 152.202 285.228 150.94 286.559C149.511 288.082 148.681 289.809 148.633 291.656V291.668Z" fill="#E7972F"/>
<path d="M179.432 283.117V304.776C181.474 303.853 183.193 302.702 184.455 301.382V286.523C183.193 285.204 181.486 284.041 179.432 283.117Z" fill="#EFC077"/>
<path d="M150.94 286.571V301.31C152.19 302.641 153.909 303.817 155.963 304.74V283.129C153.909 284.064 152.202 285.228 150.94 286.559V286.571Z" fill="#BD811E"/>
<path d="M175.334 281.702V306.18C176.295 305.94 177.233 305.652 178.098 305.316V282.553C177.221 282.23 176.295 281.93 175.334 281.69V281.702Z" fill="#ECAF45"/>
<path d="M167.728 302.905C178.273 302.905 186.822 297.955 186.822 291.848C186.822 285.741 178.273 280.791 167.728 280.791C157.182 280.791 148.633 285.741 148.633 291.848C148.633 297.955 157.182 302.905 167.728 302.905Z" fill="#EAA644"/>
<path d="M167.728 301.166C172.522 301.166 177.017 300.099 180.357 298.156C183.409 296.393 185.092 294.15 185.092 291.836C185.092 289.521 183.409 287.278 180.357 285.515C177.017 283.572 172.522 282.517 167.728 282.517C162.933 282.517 158.439 283.584 155.098 285.515C152.046 287.278 150.364 289.521 150.364 291.836C150.364 294.15 152.046 296.393 155.098 298.156C158.439 300.099 162.933 301.166 167.728 301.166Z" fill="#BD811E"/>
<path d="M167.728 300.591C172.426 300.591 176.812 299.547 180.069 297.664C182.929 296.009 184.515 293.935 184.515 291.836C184.515 289.737 182.941 287.674 180.069 286.007C176.812 284.124 172.426 283.081 167.728 283.081C163.029 283.081 158.643 284.124 155.387 286.007C152.527 287.662 150.94 289.737 150.94 291.836C150.94 293.935 152.515 295.997 155.387 297.664C158.643 299.547 163.029 300.591 167.728 300.591Z" fill="#E7972F"/>
<path d="M152.094 291.848C152.094 293.515 153.464 295.23 155.964 296.681C158.163 297.952 160.926 298.828 163.955 299.211C165.168 299.367 166.442 299.451 167.728 299.451C168.881 299.451 170.011 299.391 171.104 299.259C171.657 299.199 172.21 299.115 172.739 299.019C173.832 298.828 174.89 298.564 175.887 298.252C177.197 297.832 178.411 297.304 179.492 296.681C181.991 295.242 183.361 293.527 183.361 291.848C183.361 290.169 181.991 288.466 179.492 287.015C176.404 285.228 172.222 284.244 167.728 284.244C165.865 284.244 164.051 284.412 162.356 284.736C161.275 284.94 160.229 285.216 159.256 285.551C158.787 285.707 158.331 285.875 157.898 286.067C157.225 286.355 156.576 286.667 155.976 287.015C154.99 287.578 154.185 288.19 153.572 288.825C152.623 289.797 152.106 290.828 152.106 291.848H152.094Z" fill="#E7AE29"/>
<path d="M153.548 288.826L163.942 299.199C165.156 299.355 166.43 299.439 167.715 299.439C168.869 299.439 169.999 299.379 171.092 299.247L157.874 286.055C157.201 286.343 156.552 286.655 155.951 287.003C154.966 287.566 154.161 288.178 153.548 288.814V288.826Z" fill="#EFC077"/>
<path d="M159.244 285.552L172.739 299.02C173.832 298.828 174.89 298.564 175.887 298.252L162.356 284.748C161.275 284.952 160.229 285.228 159.256 285.564L159.244 285.552Z" fill="#EFC077"/>
<path d="M341.307 215.501C341.583 212.191 341.728 208.761 341.728 205.211C341.728 142.332 297.495 65.8773 242.939 34.4439C217.188 19.6086 193.743 17.4499 176.163 25.9169" stroke="#3587F2" stroke-width="1.91" stroke-linecap="round" stroke-linejoin="round"/>
<path d="M220.288 93.6769C213.715 89.8871 208.368 92.9693 208.368 100.549C208.368 108.128 213.715 117.375 220.288 121.165C226.861 124.954 232.209 121.872 232.209 114.293C232.209 106.713 226.861 97.4667 220.288 93.6769ZM220.288 119.294C214.604 116.02 209.99 108.044 209.99 101.484C209.99 94.9242 214.604 92.2737 220.288 95.5478C225.972 98.8219 230.586 106.797 230.586 113.357C230.586 119.917 225.972 122.568 220.288 119.294Z" fill="#85BFF2"/>
<path d="M223.605 114.748C222.68 114.976 221.598 114.748 220.469 114.089C218.149 112.746 216.167 109.915 215.398 107.109L221.093 110.395C221.538 110.659 221.911 110.443 221.911 109.927C221.911 109.412 221.55 108.776 221.093 108.524L215.061 105.046C215.061 104.938 215.049 104.83 215.049 104.722C215.049 104.614 215.049 104.519 215.061 104.423L222.728 108.836C223.172 109.1 223.545 108.884 223.545 108.368C223.545 107.853 223.184 107.217 222.728 106.965L215.398 102.744C216.167 100.825 218.149 100.273 220.469 101.604C221.598 102.252 222.692 103.283 223.605 104.566C223.965 105.082 224.482 105.274 224.734 104.998C224.999 104.722 224.915 104.087 224.542 103.583C223.341 101.916 221.935 100.585 220.469 99.7333C217.236 97.8744 214.52 98.8219 213.691 101.76L213.511 101.652C213.066 101.388 212.694 101.604 212.694 102.12C212.694 102.612 213.018 103.199 213.439 103.475C213.439 103.583 213.427 103.679 213.427 103.787C213.427 103.895 213.427 104.003 213.439 104.111C213.018 103.919 212.694 104.123 212.694 104.614C212.694 105.13 213.054 105.766 213.511 106.018L213.691 106.126C214.52 110.023 217.248 114.113 220.469 115.972C221.947 116.823 223.353 117.111 224.554 116.823C224.915 116.739 225.011 116.2 224.746 115.624C224.482 115.048 223.977 114.665 223.617 114.748H223.605Z" fill="#85BFF2"/>
<path d="M76.8222 23.0624C76.5699 22.9185 76.3295 22.6666 76.1493 22.3548C75.7768 21.7072 75.7768 21.0116 76.1493 20.7957C76.5098 20.5919 77.1346 20.9517 77.4951 21.5753C77.6754 21.8871 77.7715 22.2229 77.7715 22.5107C77.7715 23.0264 78.132 23.6621 78.5886 23.9139C79.0453 24.1658 79.4058 23.9619 79.4058 23.4462C79.4058 22.6547 79.1414 21.7552 78.6487 20.9037C78.3002 20.304 77.8676 19.7763 77.387 19.3926L77.3629 18.7929C77.3629 18.2772 77.0024 17.6416 76.5458 17.3898C76.1012 17.1259 75.7287 17.3418 75.7287 17.8575V18.637C75.4523 18.637 75.2 18.673 74.9837 18.7929C73.9743 19.3686 73.9743 21.2635 74.9837 23.0024C75.4763 23.842 76.1132 24.5256 76.8102 24.9213C77.1226 25.1012 77.411 25.401 77.6273 25.7848C78.0719 26.5643 78.0719 27.4039 77.6273 27.6557C77.4711 27.7516 77.2668 27.7397 77.0505 27.6677C76.9063 27.5837 76.7501 27.4998 76.6059 27.4158C76.3776 27.236 76.1613 26.9961 75.9931 26.7083C75.7527 26.2885 75.6326 25.8208 75.6566 25.449C75.7047 24.9573 75.3802 24.3097 74.9236 23.9979C74.479 23.6741 74.0824 23.83 74.0344 24.3217C73.9502 25.2331 74.2386 26.3365 74.8395 27.3679C75.1038 27.8116 75.4042 28.2194 75.7287 28.5672C75.7768 29.0589 76.1132 29.6225 76.5338 29.8744C76.8943 30.0783 77.1947 29.9823 77.3029 29.6705C77.8556 29.8744 78.3603 29.8624 78.7689 29.6345C79.8504 29.0109 79.8504 26.9841 78.7689 25.1132C78.2402 24.2017 77.5432 23.4702 76.8102 23.0384L76.8222 23.0624Z" fill="#85BFF2"/>
<path d="M81.0399 16.3103C81.0399 16.3103 81.0399 16.2983 81.0519 16.2863L82.6741 12.2207C82.8664 11.753 82.7943 11.0694 82.4939 10.3858C82.1935 9.7022 81.6888 9.11455 81.1601 8.81473L72.4841 3.81367C71.9554 3.50186 71.4507 3.52584 71.1502 3.84965C70.8498 4.18545 70.7777 4.7851 70.97 5.4687L72.5922 11.4052C72.5922 11.4052 72.5922 11.4292 72.6042 11.4532C67.9058 12.1248 66.8483 20.5318 66.632 23.2062C66.5359 24.3576 66.8964 25.7607 67.6053 27.068C68.3263 28.3872 69.3478 29.5025 70.4172 30.1142L74.1183 32.2489L79.5378 35.3671L83.2389 37.5018C84.3084 38.1135 85.3298 38.1854 86.0508 37.6937C86.7598 37.214 87.1203 36.2066 87.0241 34.9593C86.8078 32.033 85.7504 22.4147 81.0519 16.3223L81.0399 16.3103ZM72.4841 5.68457L81.1601 10.6856L79.5378 14.7512L74.1183 11.6331L72.4961 5.69656L72.4841 5.68457ZM83.2269 35.6189L79.5258 33.4842L74.1063 30.366L70.4052 28.2313C69.1435 27.4997 68.1341 25.6888 68.2422 24.2976C68.6388 19.3205 70.285 13.3121 74.1063 13.492L79.5258 16.6101C83.3471 20.8316 84.9933 28.735 85.3899 34.1678C85.498 35.6789 84.4887 36.3385 83.2269 35.6069V35.6189Z" fill="#85BFF2"/>
<path d="M81.2684 72.3053C87.8415 76.0951 93.1889 85.3416 93.1889 92.9212C93.1889 100.501 87.8415 103.583 81.2684 99.7931C74.6953 96.0033 69.3359 86.7568 69.3359 79.1772C69.3359 71.5977 74.6833 68.5155 81.2684 72.3053ZM81.2684 97.9222C86.9522 101.196 91.5666 98.5458 91.5666 91.9857C91.5666 85.4256 86.9522 77.4623 81.2684 74.1762C75.5846 70.9021 70.9702 73.5526 70.9702 80.1127C70.9702 86.6728 75.5846 94.6361 81.2684 97.9222Z" fill="#85BFF2"/>
<path d="M82.8906 83.2311C82.8906 81.5041 84.1043 80.8085 85.6064 81.672C87.1084 82.5355 88.3221 84.6343 88.3221 86.3613C88.3221 88.0883 87.1084 88.7838 85.6064 87.9203C84.1043 87.0569 82.8906 84.9581 82.8906 83.2311ZM86.6879 85.4138C86.6879 84.7182 86.2072 83.8787 85.6064 83.5429C85.0055 83.1951 84.5249 83.483 84.5249 84.1666C84.5249 84.8502 85.0055 85.7017 85.6064 86.0375C86.2072 86.3852 86.6879 86.0974 86.6879 85.4138Z" fill="#85BFF2"/>
<path d="M78.0121 86.049C79.5022 86.9125 80.7279 89.0112 80.7279 90.7382C80.7279 92.4652 79.5142 93.1608 78.0121 92.2973C76.5101 91.4338 75.2964 89.335 75.2964 87.6081C75.2964 85.8811 76.5101 85.1855 78.0121 86.049ZM78.0121 90.4264C78.613 90.7742 79.0936 90.4864 79.0936 89.8028C79.0936 89.1192 78.613 88.2677 78.0121 87.9319C77.4113 87.5841 76.9306 87.8719 76.9306 88.5555C76.9306 89.2391 77.4113 90.0906 78.0121 90.4264Z" fill="#85BFF2"/>
<path d="M75.8129 76.6228C76.1254 76.4429 76.6421 76.7307 76.9665 77.2824L87.2647 95.0919C87.5772 95.6436 87.5772 96.2312 87.2647 96.4111C87.1085 96.5071 86.8922 96.4711 86.6879 96.3511C86.4837 96.2312 86.2674 96.0154 86.1112 95.7395L75.8129 77.93C75.5005 77.3783 75.5005 76.7907 75.8129 76.6108V76.6228Z" fill="#85BFF2"/>
<path d="M348.349 87.6686C341.776 83.8788 336.428 86.961 336.428 94.5405C336.428 102.12 341.776 111.367 348.349 115.156C354.922 118.946 360.281 115.864 360.281 108.284C360.281 100.705 354.934 91.4583 348.349 87.6686ZM348.349 113.285C342.665 110.011 338.05 102.036 338.05 95.476C338.05 88.9158 342.665 86.2654 348.349 89.5395C354.033 92.8136 358.647 100.789 358.647 107.349C358.647 113.909 354.033 116.56 348.349 113.285Z" fill="#85BFF2"/>
<path d="M348.889 100.873V95.9198C349.226 96.2436 349.562 96.6753 349.851 97.179C350.175 97.7307 350.187 97.9466 350.187 98.7981C350.187 99.3138 350.547 99.9374 351.004 100.201C351.449 100.465 351.821 100.249 351.821 99.7335C351.821 98.7981 351.821 97.9106 351.016 96.5194C350.403 95.4641 349.658 94.5766 348.901 93.9889V93.6171C348.901 93.1014 348.541 92.4658 348.084 92.214C347.639 91.9501 347.267 92.166 347.267 92.6817V93.1854C345.981 92.8616 344.287 93.0895 344.287 95.9558C344.287 98.2824 345.933 100.369 347.267 101.556V107.241C346.354 106.354 345.657 104.723 345.657 103.283C345.657 102.768 345.296 102.132 344.84 101.88C344.395 101.616 344.022 101.832 344.022 102.348C344.022 104.867 345.428 107.769 347.267 109.172V109.544C347.267 110.059 347.627 110.695 348.084 110.947C348.529 111.211 348.901 110.995 348.901 110.479V110.047C350.535 110.635 352.422 110.503 352.422 107.517C352.422 104.819 350.259 102.024 348.901 100.885L348.889 100.873ZM345.909 96.8912C345.909 95.4161 346.618 95.1163 347.267 95.1642V99.5776C346.618 98.918 345.909 97.9706 345.909 96.8912ZM348.889 108.129V102.828C349.646 103.595 350.788 105.142 350.788 106.57C350.788 108.296 349.754 108.368 348.889 108.129Z" fill="#85BFF2"/>
<path d="M351.413 209.816V208.305L353.684 209.612V211.124C355.643 212.719 356.652 215.045 356.652 217.804V218.439L354.032 216.928V216.089C354.032 214.637 353.528 213.798 352.65 213.282C351.773 212.779 351.269 213.03 351.269 214.482C351.269 218.667 356.688 221.989 356.688 227.794C356.688 230.552 355.655 231.727 353.696 231.056V232.531L351.425 231.224V229.749C349.43 228.141 348.433 225.791 348.433 223.032V221.641L351.052 223.152V224.747C351.052 226.199 351.605 227.038 352.482 227.554C353.359 228.058 353.912 227.854 353.912 226.403C353.912 222.217 348.493 218.895 348.493 213.09C348.493 210.356 349.478 209.181 351.413 209.804V209.816Z" fill="#85BFF2"/>
<path d="M160.794 5.88879L161.503 6.29655V3.47821C161.503 0.228124 162.837 -0.863233 165.553 0.707841C168.268 2.27892 169.602 4.90537 169.602 8.15545V9.63058L166.982 8.11947V6.44046C166.982 4.98932 166.502 4.16181 165.625 3.6581C164.747 3.1544 164.267 3.43024 164.267 4.88138V7.9036L168.148 10.1343V11.7293L164.267 9.49866V11.0937L168.148 13.3244V14.9195L164.267 12.6888V15.8549C164.267 17.3061 164.747 18.1096 165.625 18.6133C166.502 19.117 166.982 18.8771 166.982 17.426V15.6031L169.602 17.1142V18.7452C169.602 21.9953 168.268 23.0867 165.553 21.5156C162.837 19.9445 161.503 17.3181 161.503 14.068V11.1057L160.794 10.698V9.10289L161.503 9.51065V7.91559L160.794 7.50783V5.91277V5.88879Z" fill="#F29F04"/>
</g>
<defs>
<clipPath id="clip0_7_488">
<rect width="371" height="319" fill="white"/>
</clipPath>
</defs>
</svg>
